<svg xmlns="http://www.w3.org/2000/svg" width="31.2" height="32.823" viewBox="0 0 31.2 32.823">
  <g id="Group_12924" data-name="Group 12924" transform="translate(-1543 -712.975)">
    <path id="Path_35768" data-name="Path 35768" d="M1558.1,733.614a6.138,6.138,0,0,1,2.644.6,6.4,6.4,0,0,1,.8.452l.8-.806c.482-.484,1.127-1.132,1.78-1.783s1.315-1.307,1.829-1.808a12.693,12.693,0,0,1,.948-.88V714.5a1.433,1.433,0,0,0-.129-.593,1.542,1.542,0,0,0-.348-.484,1.643,1.643,0,0,0-1.125-.446h-20.876a1.4,1.4,0,0,0-.576.12,1.343,1.343,0,0,0-.448.326,1.489,1.489,0,0,0-.291.484,1.708,1.708,0,0,0-.1.593v28.516a1.608,1.608,0,0,0,.1.58,1.346,1.346,0,0,0,.291.457,1.308,1.308,0,0,0,.448.3,1.526,1.526,0,0,0,.576.108h10.03l-.157-.145-.157-.145-.157-.145-.157-.145a6.191,6.191,0,0,1-.762-.923,5.794,5.794,0,0,1-.884-2.142,6.234,6.234,0,0,1-.112-1.189,6.14,6.14,0,0,1,.116-1.193,5.983,5.983,0,0,1,.34-1.124,6.053,6.053,0,0,1,.552-1.035,6.355,6.355,0,0,1,.751-.927,6.441,6.441,0,0,1,.927-.736,6.163,6.163,0,0,1,1.035-.544,6.06,6.06,0,0,1,1.124-.337,6.166,6.166,0,0,1,1.193-.116Zm-7.221-16.49a1.522,1.522,0,0,1,1.523-1.523h10.345a1.523,1.523,0,0,1,1.523,1.523v.63a1.523,1.523,0,0,1-1.523,1.523H1552.4a1.522,1.522,0,0,1-1.523-1.523v-.63Zm0,5.776a1.522,1.522,0,0,1,1.523-1.522h10.345a1.522,1.522,0,0,1,1.523,1.522v.631a1.523,1.523,0,0,1-1.523,1.523H1552.4a1.523,1.523,0,0,1-1.523-1.523V722.9Zm-3.65,7.747a1.811,1.811,0,0,1-.7-.139,1.759,1.759,0,0,1-.947-.947,1.836,1.836,0,0,1,0-1.4,1.758,1.758,0,0,1,.947-.946,1.838,1.838,0,0,1,1.4,0,1.758,1.758,0,0,1,.947.946,1.812,1.812,0,0,1,.139.7,1.775,1.775,0,0,1-.528,1.268,1.8,1.8,0,0,1-.568.38,1.777,1.777,0,0,1-.689.139Zm0-5.856a1.812,1.812,0,0,1-.7-.139,1.759,1.759,0,0,1-.947-.947,1.836,1.836,0,0,1,0-1.4,1.759,1.759,0,0,1,.947-.947,1.837,1.837,0,0,1,1.4,0,1.759,1.759,0,0,1,.947.947,1.811,1.811,0,0,1,.139.7,1.742,1.742,0,0,1-.142.689,1.831,1.831,0,0,1-.954.954,1.743,1.743,0,0,1-.689.142Zm0-5.62a1.811,1.811,0,0,1-.7-.139,1.759,1.759,0,0,1-.947-.947,1.836,1.836,0,0,1,0-1.4,1.759,1.759,0,0,1,.947-.947,1.838,1.838,0,0,1,1.4,0,1.759,1.759,0,0,1,.947.947,1.815,1.815,0,0,1,.139.7,1.773,1.773,0,0,1-.528,1.267,1.8,1.8,0,0,1-.568.38,1.777,1.777,0,0,1-.689.139Zm3.65,9.874v-.631a1.522,1.522,0,0,1,1.523-1.523h10.345a1.523,1.523,0,0,1,1.523,1.523v.631a1.523,1.523,0,0,1-1.523,1.523H1552.4a1.523,1.523,0,0,1-1.523-1.523Zm0,0" fill="#fff"/>
    <path id="Path_35769" data-name="Path 35769" d="M1850.068,1164.5a2.637,2.637,0,0,0,.4.329,2.579,2.579,0,0,0,.932.383,2.637,2.637,0,0,0,1.01,0,2.577,2.577,0,0,0,.931-.383,2.631,2.631,0,0,0,.4-.329l2.469-2.468,2.468-2.468,2.469-2.468,2.469-2.468a2.708,2.708,0,0,0,.791-1.815,2.584,2.584,0,0,0-.152-.973,2.488,2.488,0,0,0-.534-.862,2.56,2.56,0,0,0-.859-.61,2.6,2.6,0,0,0-1.995-.028,2.537,2.537,0,0,0-.874.586l-1.753,1.753-1.753,1.753-1.753,1.753-1.753,1.753a1.555,1.555,0,0,1-.506.34,1.493,1.493,0,0,1-1.14,0,1.554,1.554,0,0,1-.506-.34l-.23-.23-.23-.23-.23-.23-.23-.23a2.622,2.622,0,0,0-.862-.575,2.576,2.576,0,0,0-1.951,0,2.652,2.652,0,0,0-1.439,1.438,2.575,2.575,0,0,0,0,1.951,2.623,2.623,0,0,0,.576.862l.958.952.958.952.958.952Zm0,0" transform="translate(-290.21 -419.463)" fill="#fff"/>
  </g>
</svg>
