<svg xmlns="http://www.w3.org/2000/svg" width="51.852" height="45.844" viewBox="0 0 51.852 45.844">
  <g id="Group_12274" data-name="Group 12274" transform="translate(-439.024 -137.36)">
    <g id="Group_12272" data-name="Group 12272" transform="translate(447.876 143.979)">
      <path id="Path_14455" data-name="Path 14455" d="M458.606,147.573v3.019a.522.522,0,0,1-.522.522h-3.426v3.424a.522.522,0,0,1-.522.522h-3.012a.522.522,0,0,1-.522-.522v-3.424h-3.424a.522.522,0,0,1-.522-.522v-3.019a.522.522,0,0,1,.522-.522H450.6v-3.426a.523.523,0,0,1,.522-.522h3.012a.522.522,0,0,1,.522.522v3.426h3.426A.522.522,0,0,1,458.606,147.573Z" transform="translate(-446.654 -143.103)" fill="none" stroke="#fff" stroke-linecap="round" stroke-linejoin="round" stroke-width="2"/>
    </g>
    <path id="Path_14456" data-name="Path 14456" d="M460.463,157.625a10,10,0,0,1,4.9,2.517" transform="translate(3.77 3.556)" fill="none" stroke="#fff" stroke-linecap="round" stroke-linejoin="round" stroke-width="2"/>
    <path id="Path_14457" data-name="Path 14457" d="M465.717,164.936c-3.1,1.894-5.992-1.06-7.949-3.208-1.14-1.251-3.375-2.975-2.777-4.9.484-1.56,2.566-2.062,3.969-2.328,3.41-.643,8.345-.233,10.7,2.72a4.371,4.371,0,0,1,.524.829,3.308,3.308,0,0,1,.339,1.75" transform="translate(2.742 2.931)" fill="none" stroke="#fff" stroke-linecap="round" stroke-linejoin="round" stroke-width="2"/>
    <g id="Group_12273" data-name="Group 12273" transform="translate(472.976 147.163)">
      <path id="Path_14458" data-name="Path 14458" d="M475.046,148.583a8.251,8.251,0,0,0-4.034,2.089" transform="translate(-467.259 -145.276)" fill="none" stroke="#fff" stroke-linecap="round" stroke-linejoin="round" stroke-width="2"/>
      <path id="Path_14459" data-name="Path 14459" d="M468.135,150.4a2.728,2.728,0,0,1,.275-1.445,3.574,3.574,0,0,1,.43-.685c1.931-2.444,6-2.794,8.818-2.273,1.16.216,2.877.624,3.282,1.909.5,1.586-1.341,3.015-2.279,4.05-1.609,1.777-3.989,4.223-6.55,2.668" transform="translate(-467.792 -145.791)" fill="none" stroke="#fff" stroke-linecap="round" stroke-linejoin="round" stroke-width="2"/>
      <path id="Path_14460" data-name="Path 14460" d="M474.1,150.643a2.354,2.354,0,0,0-2.505-.257,8.488,8.488,0,0,0-3.753,5.847" transform="translate(-467.844 -144.99)" fill="none" stroke="#fff" stroke-linecap="round" stroke-linejoin="round" stroke-width="2"/>
    </g>
    <path id="Path_14461" data-name="Path 14461" d="M481.667,162.826a1.119,1.119,0,0,0,1.639-.846,1.609,1.609,0,0,0-.944-1.488c-2.013-1.013-4.335.969-4.276,3.035a3.524,3.524,0,0,0,2.669,3.179c2.561.7,4.418-1.474,5.684-3.359a20.287,20.287,0,0,0,3.355-9.367,14.051,14.051,0,0,0-3.928-11.547,14.727,14.727,0,0,0-2.214-1.732,13.173,13.173,0,0,0-14.051-.612,16.728,16.728,0,0,0-4.569,3.315,17.136,17.136,0,0,0-5.829-3.888,13.341,13.341,0,0,0-15.005,2.916c-5.222,4.653-5.089,12.565-2.075,18.346,1.618,3.09,4.117,5.5,6.629,7.866,3.135,2.958,6.55,5.558,9.875,8.28,2.076,1.719,6.316,5.278,6.406,5.278s4.329-3.559,6.417-5.289a6.093,6.093,0,0,0,2.32-4.5,9.288,9.288,0,0,0-.066-1.652,10.261,10.261,0,0,0-4.576-7.063,2.734,2.734,0,0,0-3.035.313" transform="translate(0 0)" fill="none" stroke="#fff" stroke-linecap="round" stroke-linejoin="round" stroke-width="2"/>
  </g>
</svg>
