<svg xmlns="http://www.w3.org/2000/svg" width="52.264" height="52.397" viewBox="0 0 52.264 52.397">
  <g id="Group_12283" data-name="Group 12283" transform="translate(-23.505 -24.585)">
    <g id="Group_12280" data-name="Group 12280" transform="translate(29.023 25.585)">
      <g id="Group_12277" data-name="Group 12277" transform="translate(0 7.127)">
        <path id="Path_14462" data-name="Path 14462" d="M44.79,62.23" transform="translate(-23.933 -23.517)" fill="none" stroke="#fff" stroke-linecap="round" stroke-linejoin="round" stroke-width="2"/>
        <path id="Path_14463" data-name="Path 14463" d="M67.358,60.967c.6,3.767-4.842,5.623-7.689,5.942-1.431.16-2.865.049-4.294.08-1.552.034-3.106.041-4.658.051-3.757.021-7.568.16-11.332-.019a14.753,14.753,0,0,1-6.273-1.511c-1.63-.871-3.873-2.38-3.558-4.517" transform="translate(-27.764 -23.834)" fill="none" stroke="#fff" stroke-linecap="round" stroke-linejoin="round" stroke-width="2"/>
        <path id="Path_14464" data-name="Path 14464" d="M44.79,62.23a53.606,53.606,0,0,0,7.344,2.378" transform="translate(-23.933 -23.517)" fill="none" stroke="#fff" stroke-linecap="round" stroke-linejoin="round" stroke-width="2"/>
        <path id="Path_14465" data-name="Path 14465" d="M42.45,39.04l-.019-.031" transform="translate(-24.525 -29.343)" fill="none" stroke="#fff" stroke-linecap="round" stroke-linejoin="round" stroke-width="2"/>
        <path id="Path_14466" data-name="Path 14466" d="M40.258,51.837c.184,2.729.429,5.585-.449,8.176l-.5,1.481" transform="translate(-25.309 -26.125)" fill="none" stroke="#fff" stroke-linecap="round" stroke-linejoin="round" stroke-width="2"/>
        <path id="Path_14467" data-name="Path 14467" d="M49.288,51.687c-.185,2.733-.329,6.235.548,8.828l.345,1.016" transform="translate(-22.84 -26.162)" fill="none" stroke="#fff" stroke-linecap="round" stroke-linejoin="round" stroke-width="2"/>
        <g id="Group_12275" data-name="Group 12275" transform="translate(22.958 9.697)">
          <path id="Path_14468" data-name="Path 14468" d="M63.743,60.891l1.16,2.247L62.43,64.1l-1.91-1.034L58.9,62.185c-.719-.938-1.672-2.089-2.527-3.1a9.621,9.621,0,0,1-2.255-5.767c-.09-2-.248-4.545-.522-6.509a3.922,3.922,0,0,0-2-3.344,23.038,23.038,0,0,0-3.673-.791c-.858-.23-1.47-.625-1.456-1.565a5.45,5.45,0,0,1,.508-2.072" transform="translate(-46.47 -39.034)" fill="none" stroke="#fff" stroke-linecap="round" stroke-linejoin="round" stroke-width="2"/>
          <line id="Line_143" data-name="Line 143" x1="4.438" y1="3.371" transform="translate(6.636 21.222)" fill="none" stroke="#fff" stroke-linecap="round" stroke-linejoin="round" stroke-width="2"/>
          <line id="Line_144" data-name="Line 144" y1="1.289" x2="1.576" transform="translate(14.049 22.739)" fill="none" stroke="#fff" stroke-linecap="round" stroke-linejoin="round" stroke-width="2"/>
        </g>
        <g id="Group_12276" data-name="Group 12276">
          <path id="Path_14469" data-name="Path 14469" d="M49.094,36.017c0,.171,0,.338-.009.508a11.859,11.859,0,0,1-.894,4.414.156.156,0,0,1-.018.04,3.353,3.353,0,0,1-2.652,1.681,3.173,3.173,0,0,1-2.89-1.677v0l-.019-.04a13.147,13.147,0,0,1-.9-4.728c-.009-.2,0-.405,0-.607q.013-.379.04-.738a4.187,4.187,0,0,1,.729-2.077,3.526,3.526,0,0,1,.884-.872l.014-.009a3.712,3.712,0,0,1,2.449-.607,3.223,3.223,0,0,1,1.56.58A4.371,4.371,0,0,1,49.032,34.7,12.783,12.783,0,0,1,49.094,36.017Z" transform="translate(-24.708 -31.282)" fill="none" stroke="#fff" stroke-linecap="round" stroke-linejoin="round" stroke-width="2"/>
          <path id="Path_14470" data-name="Path 14470" d="M46.041,39.037a5.437,5.437,0,0,1,.508,2.068c.013.939-.594,1.335-1.456,1.565a23.038,23.038,0,0,0-3.673.791,3.92,3.92,0,0,0-2,3.344c-.274,1.964-.432,4.508-.522,6.509a9.614,9.614,0,0,1-2.257,5.767c-.853,1.016-1.806,2.167-2.526,3.1l-1.622.877L30.589,64.1l-2.472-.958,1.16-2.247" transform="translate(-28.117 -29.336)" fill="none" stroke="#fff" stroke-linecap="round" stroke-linejoin="round" stroke-width="2"/>
          <line id="Line_145" data-name="Line 145" y1="3.371" x2="4.438" transform="translate(7.358 30.918)" fill="none" stroke="#fff" stroke-linecap="round" stroke-linejoin="round" stroke-width="2"/>
          <line id="Line_146" data-name="Line 146" x1="1.576" y1="1.289" transform="translate(2.807 32.435)" fill="none" stroke="#fff" stroke-linecap="round" stroke-linejoin="round" stroke-width="2"/>
        </g>
        <path id="Path_14471" data-name="Path 14471" d="M46.744,61.687l4.292-2.067s1.1-.141,2.563-.316" transform="translate(-23.443 -24.251)" fill="none" stroke="#fff" stroke-linecap="round" stroke-linejoin="round" stroke-width="2"/>
        <path id="Path_14472" data-name="Path 14472" d="M37.343,59.3c1.421.171,2.457.316,2.457.316a53.511,53.511,0,0,0,6.859,3.344" transform="translate(-25.802 -24.251)" fill="none" stroke="#fff" stroke-linecap="round" stroke-linejoin="round" stroke-width="2"/>
      </g>
      <g id="Group_12278" data-name="Group 12278" transform="translate(2.23)">
        <path id="Path_14473" data-name="Path 14473" d="M32.044,47.636a.231.231,0,0,1,.316.083.239.239,0,0,1-.084.321.227.227,0,0,1-.316-.083A.235.235,0,0,1,32.044,47.636Z" transform="translate(-29.391 -20.06)" fill="none" stroke="#fff" stroke-linecap="round" stroke-linejoin="round" stroke-width="2"/>
        <path id="Path_14474" data-name="Path 14474" d="M31.054,45.567a.236.236,0,0,1,.3.131.224.224,0,0,1-.121.3.245.245,0,0,1-.313-.126A.232.232,0,0,1,31.054,45.567Z" transform="translate(-29.649 -20.575)" fill="none" stroke="#fff" stroke-linecap="round" stroke-linejoin="round" stroke-width="2"/>
        <path id="Path_14475" data-name="Path 14475" d="M30.422,43.36a.236.236,0,0,1,.279.176.233.233,0,0,1-.176.278.233.233,0,0,1-.1-.454Z" transform="translate(-29.814 -21.126)" fill="none" stroke="#fff" stroke-linecap="round" stroke-linejoin="round" stroke-width="2"/>
        <path id="Path_14476" data-name="Path 14476" d="M30.129,41.085a.222.222,0,0,1,.236.218.237.237,0,0,1-.214.248.23.23,0,0,1-.251-.218A.244.244,0,0,1,30.129,41.085Z" transform="translate(-29.9 -21.696)" fill="none" stroke="#fff" stroke-linecap="round" stroke-linejoin="round" stroke-width="2"/>
        <path id="Path_14477" data-name="Path 14477" d="M30.2,38.791a.24.24,0,0,1,.214.254A.233.233,0,0,1,29.948,39,.226.226,0,0,1,30.2,38.791Z" transform="translate(-29.888 -22.272)" fill="none" stroke="#fff" stroke-linecap="round" stroke-linejoin="round" stroke-width="2"/>
        <path id="Path_14478" data-name="Path 14478" d="M30.636,36.539a.229.229,0,0,1,.161.283.242.242,0,0,1-.289.166.226.226,0,0,1-.163-.283A.24.24,0,0,1,30.636,36.539Z" transform="translate(-29.79 -22.839)" fill="none" stroke="#fff" stroke-linecap="round" stroke-linejoin="round" stroke-width="2"/>
        <path id="Path_14479" data-name="Path 14479" d="M31.4,34.375a.247.247,0,0,1,.128.31.225.225,0,0,1-.3.124.241.241,0,0,1-.129-.31A.223.223,0,0,1,31.4,34.375Z" transform="translate(-29.603 -23.384)" fill="none" stroke="#fff" stroke-linecap="round" stroke-linejoin="round" stroke-width="2"/>
        <path id="Path_14480" data-name="Path 14480" d="M32.524,32.374a.233.233,0,0,1-.25.393.233.233,0,1,1,.25-.393Z" transform="translate(-29.332 -23.891)" fill="none" stroke="#fff" stroke-linecap="round" stroke-linejoin="round" stroke-width="2"/>
        <path id="Path_14481" data-name="Path 14481" d="M33.931,30.56a.226.226,0,0,1,.015.324.247.247,0,0,1-.335.015.222.222,0,0,1-.014-.324A.239.239,0,0,1,33.931,30.56Z" transform="translate(-28.988 -24.352)" fill="none" stroke="#fff" stroke-linecap="round" stroke-linejoin="round" stroke-width="2"/>
        <path id="Path_14482" data-name="Path 14482" d="M35.6,28.983a.243.243,0,0,1-.026.333.228.228,0,0,1-.324-.026.237.237,0,0,1,.026-.333A.223.223,0,0,1,35.6,28.983Z" transform="translate(-28.573 -24.753)" fill="none" stroke="#fff" stroke-linecap="round" stroke-linejoin="round" stroke-width="2"/>
        <path id="Path_14483" data-name="Path 14483" d="M37.5,27.7a.232.232,0,0,1-.084.316.238.238,0,0,1-.32-.084.229.229,0,0,1,.084-.318A.233.233,0,0,1,37.5,27.7Z" transform="translate(-28.102 -25.082)" fill="none" stroke="#fff" stroke-linecap="round" stroke-linejoin="round" stroke-width="2"/>
        <path id="Path_14484" data-name="Path 14484" d="M39.575,26.723a.233.233,0,0,1-.433.171.245.245,0,0,1,.128-.313A.242.242,0,0,1,39.575,26.723Z" transform="translate(-27.585 -25.338)" fill="none" stroke="#fff" stroke-linecap="round" stroke-linejoin="round" stroke-width="2"/>
        <path id="Path_14485" data-name="Path 14485" d="M41.785,26.1a.238.238,0,0,1-.178.279.233.233,0,1,1-.1-.455A.229.229,0,0,1,41.785,26.1Z" transform="translate(-27.034 -25.502)" fill="none" stroke="#fff" stroke-linecap="round" stroke-linejoin="round" stroke-width="2"/>
        <path id="Path_14486" data-name="Path 14486" d="M44.06,25.813a.224.224,0,0,1-.219.238.245.245,0,0,1-.246-.221.221.221,0,0,1,.218-.244A.242.242,0,0,1,44.06,25.813Z" transform="translate(-26.464 -25.585)" fill="none" stroke="#fff" stroke-linecap="round" stroke-linejoin="round" stroke-width="2"/>
        <path id="Path_14487" data-name="Path 14487" d="M46.354,25.887a.241.241,0,0,1-.255.214.232.232,0,0,1-.21-.251.236.236,0,0,1,.255-.213A.226.226,0,0,1,46.354,25.887Z" transform="translate(-25.888 -25.572)" fill="none" stroke="#fff" stroke-linecap="round" stroke-linejoin="round" stroke-width="2"/>
        <path id="Path_14488" data-name="Path 14488" d="M48.6,26.335a.23.23,0,0,1-.284.161.243.243,0,0,1-.165-.289.225.225,0,0,1,.284-.161A.237.237,0,0,1,48.6,26.335Z" transform="translate(-25.321 -25.472)" fill="none" stroke="#fff" stroke-linecap="round" stroke-linejoin="round" stroke-width="2"/>
        <path id="Path_14489" data-name="Path 14489" d="M50.765,27.108a.246.246,0,0,1-.308.123.224.224,0,0,1-.124-.3.24.24,0,0,1,.31-.128A.22.22,0,0,1,50.765,27.108Z" transform="translate(-24.777 -25.283)" fill="none" stroke="#fff" stroke-linecap="round" stroke-linejoin="round" stroke-width="2"/>
        <path id="Path_14490" data-name="Path 14490" d="M52.764,28.236a.233.233,0,1,1-.07-.32A.228.228,0,0,1,52.764,28.236Z" transform="translate(-24.271 -25.01)" fill="none" stroke="#fff" stroke-linecap="round" stroke-linejoin="round" stroke-width="2"/>
        <path id="Path_14491" data-name="Path 14491" d="M54.57,29.652a.226.226,0,0,1-.324.014.244.244,0,0,1-.015-.334.223.223,0,0,1,.324-.015A.241.241,0,0,1,54.57,29.652Z" transform="translate(-23.81 -24.664)" fill="none" stroke="#fff" stroke-linecap="round" stroke-linejoin="round" stroke-width="2"/>
        <path id="Path_14492" data-name="Path 14492" d="M56.146,31.319a.244.244,0,0,1-.333-.028.228.228,0,0,1,.026-.324.24.24,0,0,1,.334.029A.222.222,0,0,1,56.146,31.319Z" transform="translate(-23.412 -24.248)" fill="none" stroke="#fff" stroke-linecap="round" stroke-linejoin="round" stroke-width="2"/>
        <path id="Path_14493" data-name="Path 14493" d="M57.415,33.233a.234.234,0,0,1-.316-.084.237.237,0,0,1,.084-.32.23.23,0,0,1,.318.084A.233.233,0,0,1,57.415,33.233Z" transform="translate(-23.083 -23.776)" fill="none" stroke="#fff" stroke-linecap="round" stroke-linejoin="round" stroke-width="2"/>
        <path id="Path_14494" data-name="Path 14494" d="M58.387,35.31a.222.222,0,0,1-.291-.136.23.23,0,0,1,.126-.3.236.236,0,0,1,.308.13A.244.244,0,0,1,58.387,35.31Z" transform="translate(-22.829 -23.258)" fill="none" stroke="#fff" stroke-linecap="round" stroke-linejoin="round" stroke-width="2"/>
        <path id="Path_14495" data-name="Path 14495" d="M59.009,37.519a.24.24,0,0,1-.28-.178.234.234,0,0,1,.457-.1A.229.229,0,0,1,59.009,37.519Z" transform="translate(-22.668 -22.706)" fill="none" stroke="#fff" stroke-linecap="round" stroke-linejoin="round" stroke-width="2"/>
        <path id="Path_14496" data-name="Path 14496" d="M59.283,39.8a.224.224,0,0,1-.238-.219.246.246,0,0,1,.228-.246.22.22,0,0,1,.238.219A.241.241,0,0,1,59.283,39.8Z" transform="translate(-22.587 -22.136)" fill="none" stroke="#fff" stroke-linecap="round" stroke-linejoin="round" stroke-width="2"/>
        <path id="Path_14497" data-name="Path 14497" d="M59.2,42.09a.24.24,0,0,1-.213-.255.23.23,0,0,1,.25-.209.235.235,0,0,1,.213.255A.225.225,0,0,1,59.2,42.09Z" transform="translate(-22.601 -21.56)" fill="none" stroke="#fff" stroke-linecap="round" stroke-linejoin="round" stroke-width="2"/>
        <path id="Path_14498" data-name="Path 14498" d="M58.745,44.338a.231.231,0,0,1-.161-.284.242.242,0,0,1,.29-.164.227.227,0,0,1,.161.284A.237.237,0,0,1,58.745,44.338Z" transform="translate(-22.705 -20.994)" fill="none" stroke="#fff" stroke-linecap="round" stroke-linejoin="round" stroke-width="2"/>
        <path id="Path_14499" data-name="Path 14499" d="M57.96,46.5a.239.239,0,0,1-.116-.306.225.225,0,0,1,.3-.123.244.244,0,0,1,.128.311A.229.229,0,0,1,57.96,46.5Z" transform="translate(-22.893 -20.45)" fill="none" stroke="#fff" stroke-linecap="round" stroke-linejoin="round" stroke-width="2"/>
        <path id="Path_14500" data-name="Path 14500" d="M56.83,48.493a.237.237,0,0,1-.071-.323.233.233,0,1,1,.392.253A.228.228,0,0,1,56.83,48.493Z" transform="translate(-23.17 -19.945)" fill="none" stroke="#fff" stroke-linecap="round" stroke-linejoin="round" stroke-width="2"/>
      </g>
      <g id="Group_12279" data-name="Group 12279" transform="translate(17.061 24.497)">
        <path id="Path_14501" data-name="Path 14501" d="M46.778,50.509a.233.233,0,0,1,.329-.329.233.233,0,1,1-.329.329Z" transform="translate(-40.511 -43.925)" fill="none" stroke="#fff" stroke-linecap="round" stroke-linejoin="round" stroke-width="2"/>
        <path id="Path_14502" data-name="Path 14502" d="M44.647,51.2a.244.244,0,0,1,.234-.225.241.241,0,0,1,.231.23.233.233,0,1,1-.465-.005Z" transform="translate(-41.031 -43.712)" fill="none" stroke="#fff" stroke-linecap="round" stroke-linejoin="round" stroke-width="2"/>
        <path id="Path_14503" data-name="Path 14503" d="M42.662,50.162a.233.233,0,0,1,.324.335.233.233,0,1,1-.324-.335Z" transform="translate(-41.549 -43.93)" fill="none" stroke="#fff" stroke-linecap="round" stroke-linejoin="round" stroke-width="2"/>
        <path id="Path_14504" data-name="Path 14504" d="M42,48.023a.233.233,0,0,1-.01.465.233.233,0,1,1,.01-.465Z" transform="translate(-41.756 -44.452)" fill="none" stroke="#fff" stroke-linecap="round" stroke-linejoin="round" stroke-width="2"/>
        <path id="Path_14505" data-name="Path 14505" d="M43.061,46.051a.243.243,0,0,1-.014.324.239.239,0,0,1-.325,0,.233.233,0,1,1,.339-.32Z" transform="translate(-41.531 -44.967)" fill="none" stroke="#fff" stroke-linecap="round" stroke-linejoin="round" stroke-width="2"/>
        <path id="Path_14506" data-name="Path 14506" d="M45.206,45.418a.233.233,0,1,1-.225-.25A.234.234,0,0,1,45.206,45.418Z" transform="translate(-41.007 -45.168)" fill="none" stroke="#fff" stroke-linecap="round" stroke-linejoin="round" stroke-width="2"/>
        <path id="Path_14507" data-name="Path 14507" d="M47.165,46.5a.233.233,0,0,1-.316-.341.232.232,0,0,1,.337.006A.229.229,0,0,1,47.165,46.5Z" transform="translate(-40.495 -44.937)" fill="none" stroke="#fff" stroke-linecap="round" stroke-linejoin="round" stroke-width="2"/>
        <path id="Path_14508" data-name="Path 14508" d="M47.772,48.654a.233.233,0,1,1,.253-.223A.234.234,0,0,1,47.772,48.654Z" transform="translate(-40.3 -44.41)" fill="none" stroke="#fff" stroke-linecap="round" stroke-linejoin="round" stroke-width="2"/>
      </g>
    </g>
    <g id="Group_12281" data-name="Group 12281" transform="translate(69.039 29.342)">
      <path id="Path_14509" data-name="Path 14509" d="M60.858,29.181A.332.332,0,0,1,60.4,29.1a.326.326,0,1,1,.532-.378A.321.321,0,0,1,60.858,29.181Z" transform="translate(-60.046 -28.588)" fill="none" stroke="#fff" stroke-linecap="round" stroke-linejoin="round" stroke-width="2"/>
      <path id="Path_14510" data-name="Path 14510" d="M62.466,31.959a.316.316,0,0,1-.428-.15.341.341,0,0,1,.155-.442.31.31,0,0,1,.428.15A.334.334,0,0,1,62.466,31.959Z" transform="translate(-59.629 -27.9)" fill="none" stroke="#fff" stroke-linecap="round" stroke-linejoin="round" stroke-width="2"/>
      <path id="Path_14511" data-name="Path 14511" d="M63.642,34.947a.342.342,0,0,1-.418-.21.318.318,0,0,1,.2-.407.336.336,0,0,1,.419.21A.312.312,0,0,1,63.642,34.947Z" transform="translate(-59.328 -27.152)" fill="none" stroke="#fff" stroke-linecap="round" stroke-linejoin="round" stroke-width="2"/>
      <path id="Path_14512" data-name="Path 14512" d="M64.294,38.091a.326.326,0,0,1-.368-.275.332.332,0,0,1,.276-.37.319.319,0,0,1,.368.274A.325.325,0,0,1,64.294,38.091Z" transform="translate(-59.148 -26.367)" fill="none" stroke="#fff" stroke-linecap="round" stroke-linejoin="round" stroke-width="2"/>
      <path id="Path_14513" data-name="Path 14513" d="M64.472,41.3a.311.311,0,0,1-.306-.329.321.321,0,0,1,.319-.321.329.329,0,0,1,.333.329A.34.34,0,0,1,64.472,41.3Z" transform="translate(-59.087 -25.563)" fill="none" stroke="#fff" stroke-linecap="round" stroke-linejoin="round" stroke-width="2"/>
      <path id="Path_14514" data-name="Path 14514" d="M64.129,44.489a.334.334,0,0,1-.27-.377.327.327,0,0,1,.644.109A.321.321,0,0,1,64.129,44.489Z" transform="translate(-59.165 -24.761)" fill="none" stroke="#fff" stroke-linecap="round" stroke-linejoin="round" stroke-width="2"/>
      <path id="Path_14515" data-name="Path 14515" d="M63.3,47.588a.314.314,0,0,1-.193-.409.345.345,0,0,1,.424-.2.31.31,0,0,1,.194.409A.338.338,0,0,1,63.3,47.588Z" transform="translate(-59.358 -23.978)" fill="none" stroke="#fff" stroke-linecap="round" stroke-linejoin="round" stroke-width="2"/>
      <path id="Path_14516" data-name="Path 14516" d="M62,50.525a.337.337,0,0,1-.144-.443.322.322,0,0,1,.434-.141.331.331,0,0,1,.144.444A.314.314,0,0,1,62,50.525Z" transform="translate(-59.676 -23.24)" fill="none" stroke="#fff" stroke-linecap="round" stroke-linejoin="round" stroke-width="2"/>
      <path id="Path_14517" data-name="Path 14517" d="M60.234,53.205a.322.322,0,0,1-.061-.453.337.337,0,0,1,.46-.063.316.316,0,0,1,.063.453A.33.33,0,0,1,60.234,53.205Z" transform="translate(-60.106 -22.557)" fill="none" stroke="#fff" stroke-linecap="round" stroke-linejoin="round" stroke-width="2"/>
    </g>
    <g id="Group_12282" data-name="Group 12282" transform="translate(24.505 29.342)">
      <path id="Path_14518" data-name="Path 14518" d="M28.464,29.181a.332.332,0,0,0,.455-.076.326.326,0,1,0-.532-.378A.321.321,0,0,0,28.464,29.181Z" transform="translate(-23.546 -28.588)" fill="none" stroke="#fff" stroke-linecap="round" stroke-linejoin="round" stroke-width="2"/>
      <path id="Path_14519" data-name="Path 14519" d="M26.854,31.959a.316.316,0,0,0,.428-.15.341.341,0,0,0-.155-.442.31.31,0,0,0-.428.15A.334.334,0,0,0,26.854,31.959Z" transform="translate(-23.962 -27.9)" fill="none" stroke="#fff" stroke-linecap="round" stroke-linejoin="round" stroke-width="2"/>
      <path id="Path_14520" data-name="Path 14520" d="M25.681,34.947a.342.342,0,0,0,.418-.21.318.318,0,0,0-.2-.407.336.336,0,0,0-.419.21A.312.312,0,0,0,25.681,34.947Z" transform="translate(-24.266 -27.152)" fill="none" stroke="#fff" stroke-linecap="round" stroke-linejoin="round" stroke-width="2"/>
      <path id="Path_14521" data-name="Path 14521" d="M25.027,38.091a.326.326,0,0,0,.368-.275.332.332,0,0,0-.276-.37.319.319,0,0,0-.368.274A.325.325,0,0,0,25.027,38.091Z" transform="translate(-24.444 -26.367)" fill="none" stroke="#fff" stroke-linecap="round" stroke-linejoin="round" stroke-width="2"/>
      <path id="Path_14522" data-name="Path 14522" d="M24.85,41.3a.311.311,0,0,0,.306-.329.321.321,0,0,0-.319-.321.329.329,0,0,0-.333.329A.34.34,0,0,0,24.85,41.3Z" transform="translate(-24.505 -25.563)" fill="none" stroke="#fff" stroke-linecap="round" stroke-linejoin="round" stroke-width="2"/>
      <path id="Path_14523" data-name="Path 14523" d="M25.193,44.489a.334.334,0,0,0,.27-.377.326.326,0,1,0-.643.109A.319.319,0,0,0,25.193,44.489Z" transform="translate(-24.427 -24.761)" fill="none" stroke="#fff" stroke-linecap="round" stroke-linejoin="round" stroke-width="2"/>
      <path id="Path_14524" data-name="Path 14524" d="M26.026,47.588a.315.315,0,0,0,.194-.409.347.347,0,0,0-.425-.2.31.31,0,0,0-.194.409A.338.338,0,0,0,26.026,47.588Z" transform="translate(-24.235 -23.978)" fill="none" stroke="#fff" stroke-linecap="round" stroke-linejoin="round" stroke-width="2"/>
      <path id="Path_14525" data-name="Path 14525" d="M27.323,50.525a.337.337,0,0,0,.144-.443.322.322,0,0,0-.434-.141.331.331,0,0,0-.144.444A.314.314,0,0,0,27.323,50.525Z" transform="translate(-23.915 -23.24)" fill="none" stroke="#fff" stroke-linecap="round" stroke-linejoin="round" stroke-width="2"/>
      <path id="Path_14526" data-name="Path 14526" d="M29.089,53.205a.322.322,0,0,0,.061-.453.337.337,0,0,0-.46-.063.316.316,0,0,0-.063.453A.33.33,0,0,0,29.089,53.205Z" transform="translate(-23.488 -22.557)" fill="none" stroke="#fff" stroke-linecap="round" stroke-linejoin="round" stroke-width="2"/>
    </g>
  </g>
</svg>
