<svg xmlns="http://www.w3.org/2000/svg" width="54.947" height="52.16" viewBox="0 0 54.947 52.16">
  <g id="Group_12288" data-name="Group 12288" transform="translate(-143.66 -25.734)">
    <g id="Group_12284" data-name="Group 12284" transform="translate(144.66 26.734)">
      <path id="Path_14527" data-name="Path 14527" d="M175.755,66.664a.332.332,0,0,0-.447-.143.342.342,0,0,0-.146.452.326.326,0,0,0,.447.144A.336.336,0,0,0,175.755,66.664Z" transform="translate(-137.198 -16.999)" fill="none" stroke="#fff" stroke-linecap="round" stroke-linejoin="round" stroke-width="2"/>
      <path id="Path_14528" data-name="Path 14528" d="M178.562,64.918a.337.337,0,0,0-.462-.07.32.32,0,0,0-.085.454.349.349,0,0,0,.476.087A.331.331,0,0,0,178.562,64.918Z" transform="translate(-136.506 -17.415)" fill="none" stroke="#fff" stroke-linecap="round" stroke-linejoin="round" stroke-width="2"/>
      <path id="Path_14529" data-name="Path 14529" d="M181.035,62.727a.334.334,0,1,0-.474.469.334.334,0,1,0,.474-.469Z" transform="translate(-135.891 -17.943)" fill="none" stroke="#fff" stroke-linecap="round" stroke-linejoin="round" stroke-width="2"/>
      <path id="Path_14530" data-name="Path 14530" d="M183.152,60.193a.32.32,0,0,0-.454.081.342.342,0,0,0,.07.464.326.326,0,0,0,.469-.07A.348.348,0,0,0,183.152,60.193Z" transform="translate(-135.359 -18.555)" fill="none" stroke="#fff" stroke-linecap="round" stroke-linejoin="round" stroke-width="2"/>
      <path id="Path_14531" data-name="Path 14531" d="M184.845,57.352a.343.343,0,0,0-.454.142.334.334,0,0,0,.6.305A.326.326,0,0,0,184.845,57.352Z" transform="translate(-134.939 -19.244)" fill="none" stroke="#fff" stroke-linecap="round" stroke-linejoin="round" stroke-width="2"/>
      <path id="Path_14532" data-name="Path 14532" d="M186.056,54.28a.326.326,0,0,0-.412.217.347.347,0,0,0,.222.423.321.321,0,0,0,.413-.217A.34.34,0,0,0,186.056,54.28Z" transform="translate(-134.627 -19.992)" fill="none" stroke="#fff" stroke-linecap="round" stroke-linejoin="round" stroke-width="2"/>
      <path id="Path_14533" data-name="Path 14533" d="M186.8,51.059a.352.352,0,0,0-.393.276.322.322,0,0,0,.265.38.346.346,0,0,0,.395-.275A.318.318,0,0,0,186.8,51.059Z" transform="translate(-134.437 -20.778)" fill="none" stroke="#fff" stroke-linecap="round" stroke-linejoin="round" stroke-width="2"/>
      <path id="Path_14534" data-name="Path 14534" d="M186.989,47.758a.334.334,0,0,0,0,.669.334.334,0,0,0,0-.669Z" transform="translate(-134.376 -21.585)" fill="none" stroke="#fff" stroke-linecap="round" stroke-linejoin="round" stroke-width="2"/>
      <path id="Path_14535" data-name="Path 14535" d="M186.684,44.469a.325.325,0,0,0-.268.38.353.353,0,0,0,.393.276.317.317,0,0,0,.266-.38A.343.343,0,0,0,186.684,44.469Z" transform="translate(-134.435 -22.392)" fill="none" stroke="#fff" stroke-linecap="round" stroke-linejoin="round" stroke-width="2"/>
      <path id="Path_14536" data-name="Path 14536" d="M185.882,41.263a.348.348,0,0,0-.224.423.327.327,0,0,0,.412.218.341.341,0,0,0,.223-.423A.318.318,0,0,0,185.882,41.263Z" transform="translate(-134.623 -23.18)" fill="none" stroke="#fff" stroke-linecap="round" stroke-linejoin="round" stroke-width="2"/>
      <path id="Path_14537" data-name="Path 14537" d="M184.556,38.235a.332.332,0,0,0-.143.447.341.341,0,0,0,.452.146.327.327,0,0,0,.143-.448A.335.335,0,0,0,184.556,38.235Z" transform="translate(-134.934 -23.927)" fill="none" stroke="#fff" stroke-linecap="round" stroke-linejoin="round" stroke-width="2"/>
      <path id="Path_14538" data-name="Path 14538" d="M182.8,35.438a.334.334,0,0,0,.391.54.351.351,0,0,0,.087-.476A.346.346,0,0,0,182.8,35.438Z" transform="translate(-135.352 -24.619)" fill="none" stroke="#fff" stroke-linecap="round" stroke-linejoin="round" stroke-width="2"/>
      <path id="Path_14539" data-name="Path 14539" d="M180.6,32.97a.339.339,0,0,0,0,.473.334.334,0,1,0,.472-.473A.33.33,0,0,0,180.6,32.97Z" transform="translate(-135.882 -25.231)" fill="none" stroke="#fff" stroke-linecap="round" stroke-linejoin="round" stroke-width="2"/>
      <path id="Path_14540" data-name="Path 14540" d="M178.057,30.861a.323.323,0,0,0,.082.456.355.355,0,0,0,.469-.078.318.318,0,0,0-.077-.463A.348.348,0,0,0,178.057,30.861Z" transform="translate(-136.496 -25.758)" fill="none" stroke="#fff" stroke-linecap="round" stroke-linejoin="round" stroke-width="2"/>
      <path id="Path_14541" data-name="Path 14541" d="M175.212,29.179a.346.346,0,0,0,.144.454.33.33,0,0,0,.446-.142.338.338,0,0,0-.143-.454A.325.325,0,0,0,175.212,29.179Z" transform="translate(-137.186 -26.18)" fill="none" stroke="#fff" stroke-linecap="round" stroke-linejoin="round" stroke-width="2"/>
      <path id="Path_14542" data-name="Path 14542" d="M172.135,27.979a.328.328,0,0,0,.218.413.348.348,0,0,0,.422-.223.323.323,0,0,0-.218-.413A.339.339,0,0,0,172.135,27.979Z" transform="translate(-137.935 -26.487)" fill="none" stroke="#fff" stroke-linecap="round" stroke-linejoin="round" stroke-width="2"/>
      <path id="Path_14543" data-name="Path 14543" d="M168.911,27.248a.352.352,0,0,0,.279.385.32.32,0,0,0,.378-.265.346.346,0,0,0-.276-.395A.319.319,0,0,0,168.911,27.248Z" transform="translate(-138.722 -26.677)" fill="none" stroke="#fff" stroke-linecap="round" stroke-linejoin="round" stroke-width="2"/>
      <path id="Path_14544" data-name="Path 14544" d="M165.61,27.068a.334.334,0,1,0,.669,0,.334.334,0,1,0-.669,0Z" transform="translate(-139.529 -26.734)" fill="none" stroke="#fff" stroke-linecap="round" stroke-linejoin="round" stroke-width="2"/>
      <path id="Path_14545" data-name="Path 14545" d="M162.322,27.387a.327.327,0,0,0,.381.268.35.35,0,0,0,.275-.393A.319.319,0,0,0,162.6,27,.343.343,0,0,0,162.322,27.387Z" transform="translate(-140.336 -26.672)" fill="none" stroke="#fff" stroke-linecap="round" stroke-linejoin="round" stroke-width="2"/>
      <path id="Path_14546" data-name="Path 14546" d="M159.117,28.195a.351.351,0,0,0,.425.224.325.325,0,0,0,.217-.412.341.341,0,0,0-.423-.223A.318.318,0,0,0,159.117,28.195Z" transform="translate(-141.124 -26.48)" fill="none" stroke="#fff" stroke-linecap="round" stroke-linejoin="round" stroke-width="2"/>
      <path id="Path_14547" data-name="Path 14547" d="M156.1,29.534a.334.334,0,0,0,.448.143.341.341,0,0,0,.144-.452.328.328,0,0,0-.449-.142A.332.332,0,0,0,156.1,29.534Z" transform="translate(-141.869 -26.168)" fill="none" stroke="#fff" stroke-linecap="round" stroke-linejoin="round" stroke-width="2"/>
      <path id="Path_14548" data-name="Path 14548" d="M153.306,31.307a.318.318,0,0,0,.457.06.329.329,0,0,0,.078-.458.338.338,0,0,0-.473-.081A.35.35,0,0,0,153.306,31.307Z" transform="translate(-142.559 -25.747)" fill="none" stroke="#fff" stroke-linecap="round" stroke-linejoin="round" stroke-width="2"/>
      <path id="Path_14549" data-name="Path 14549" d="M150.843,33.508a.34.34,0,0,0,.474,0,.334.334,0,0,0-.474-.471A.327.327,0,0,0,150.843,33.508Z" transform="translate(-143.17 -25.215)" fill="none" stroke="#fff" stroke-linecap="round" stroke-linejoin="round" stroke-width="2"/>
      <path id="Path_14550" data-name="Path 14550" d="M148.746,36.063a.323.323,0,0,0,.456-.082.352.352,0,0,0-.086-.473.315.315,0,0,0-.456.082A.344.344,0,0,0,148.746,36.063Z" transform="translate(-143.695 -24.601)" fill="none" stroke="#fff" stroke-linecap="round" stroke-linejoin="round" stroke-width="2"/>
      <path id="Path_14551" data-name="Path 14551" d="M147.07,38.909a.345.345,0,0,0,.454-.144.328.328,0,0,0-.142-.446.338.338,0,0,0-.454.146A.322.322,0,0,0,147.07,38.909Z" transform="translate(-144.114 -23.906)" fill="none" stroke="#fff" stroke-linecap="round" stroke-linejoin="round" stroke-width="2"/>
      <path id="Path_14552" data-name="Path 14552" d="M145.884,41.993a.33.33,0,0,0,.413-.218.347.347,0,0,0-.223-.422.324.324,0,0,0-.415.219A.337.337,0,0,0,145.884,41.993Z" transform="translate(-144.419 -23.158)" fill="none" stroke="#fff" stroke-linecap="round" stroke-linejoin="round" stroke-width="2"/>
      <path id="Path_14553" data-name="Path 14553" d="M145.167,45.218a.341.341,0,0,0,.377-.28.32.32,0,0,0-.266-.377.345.345,0,0,0-.393.278A.325.325,0,0,0,145.167,45.218Z" transform="translate(-144.607 -22.369)" fill="none" stroke="#fff" stroke-linecap="round" stroke-linejoin="round" stroke-width="2"/>
      <path id="Path_14554" data-name="Path 14554" d="M144.994,48.521a.34.34,0,0,0,.334-.336.334.334,0,1,0-.667,0A.329.329,0,0,0,144.994,48.521Z" transform="translate(-144.66 -21.562)" fill="none" stroke="#fff" stroke-linecap="round" stroke-linejoin="round" stroke-width="2"/>
    </g>
    <g id="Group_12285" data-name="Group 12285" transform="translate(154.378 36.164)">
      <path id="Path_14555" data-name="Path 14555" d="M171.348,40.6v3.292h9.487a1.637,1.637,0,0,1,1.637,1.637v8.18a1.637,1.637,0,0,1-1.637,1.637h-9.487v9.487a1.637,1.637,0,0,1-1.637,1.637h-2.233" transform="translate(-148.79 -32.768)" fill="none" stroke="#fff" stroke-linecap="round" stroke-linejoin="round" stroke-width="2"/>
      <path id="Path_14556" data-name="Path 14556" d="M163.59,60.179V56.888H154.1a1.637,1.637,0,0,1-1.637-1.637V47.07a1.637,1.637,0,0,1,1.637-1.637h9.487V35.946a1.637,1.637,0,0,1,1.637-1.637h2.348" transform="translate(-152.466 -34.309)" fill="none" stroke="#fff" stroke-linecap="round" stroke-linejoin="round" stroke-width="2"/>
    </g>
    <g id="Group_12286" data-name="Group 12286" transform="translate(154.831 61.732)">
      <path id="Path_14557" data-name="Path 14557" d="M152.83,54.847a13.528,13.528,0,0,0,6.78,8.061,9.2,9.2,0,0,0,3.143,1.036" transform="translate(-152.83 -54.847)" fill="none" stroke="#fff" stroke-linecap="round" stroke-linejoin="round" stroke-width="2"/>
      <path id="Path_14558" data-name="Path 14558" d="M158.14,56.985c3.062-1.993,6.066.893,8.093,3,1.2,1.226,3.5,2.888,2.955,4.851-.454,1.591-2.53,2.151-3.943,2.46-3.4.743-8.383.477-10.844-2.426a5.818,5.818,0,0,1-.56-.828,3.265,3.265,0,0,1,1.653-4.563" transform="translate(-152.677 -54.488)" fill="none" stroke="#fff" stroke-linecap="round" stroke-linejoin="round" stroke-width="2"/>
      <path id="Path_14559" data-name="Path 14559" d="M156.874,60.565a3.014,3.014,0,0,0,2.923-.657" transform="translate(-151.84 -53.608)" fill="none" stroke="#fff" stroke-linecap="round" stroke-linejoin="round" stroke-width="2"/>
    </g>
    <g id="Group_12287" data-name="Group 12287" transform="translate(171.424 32.363)">
      <path id="Path_14560" data-name="Path 14560" d="M179.207,42.96a12.142,12.142,0,0,0-5.539-7.657,8.247,8.247,0,0,0-2.746-1.133" transform="translate(-164.993 -30.542)" fill="none" stroke="#fff" stroke-linecap="round" stroke-linejoin="round" stroke-width="2"/>
      <path id="Path_14561" data-name="Path 14561" d="M175.649,41.081c-2.871,1.584-5.37-1.2-7.046-3.212-1-1.176-2.939-2.815-2.327-4.535.51-1.394,2.4-1.759,3.69-1.943,3.095-.442,7.532.122,9.545,2.882a5.376,5.376,0,0,1,.447.777,2.931,2.931,0,0,1-1.779,3.975" transform="translate(-166.159 -31.256)" fill="none" stroke="#fff" stroke-linecap="round" stroke-linejoin="round" stroke-width="2"/>
      <path id="Path_14562" data-name="Path 14562" d="M174.847,36a2.706,2.706,0,0,0-2.659.4" transform="translate(-164.683 -30.139)" fill="none" stroke="#fff" stroke-linecap="round" stroke-linejoin="round" stroke-width="2"/>
    </g>
  </g>
</svg>
