<svg xmlns="http://www.w3.org/2000/svg" width="46.023" height="58.65" viewBox="0 0 46.023 58.65">
  <g id="Group_12295" data-name="Group 12295" transform="translate(-448.369 -189.75)">
    <g id="Group_12292" data-name="Group 12292" transform="translate(460.792 216.396)">
      <g id="Group_12289" data-name="Group 12289" transform="translate(18.754 11.349)">
        <path id="Path_14563" data-name="Path 14563" d="M478.485,227.352a8.263,8.263,0,0,0-.277-4.535" transform="translate(-468.87 -215.875)" fill="none" stroke="#fff" stroke-linecap="round" stroke-linejoin="round" stroke-width="2"/>
        <path id="Path_14564" data-name="Path 14564" d="M481.6,220.774a2.707,2.707,0,0,1,1.21.836,3.583,3.583,0,0,1,.454.671c1.451,2.755.122,6.619-1.495,8.983-.667.973-1.737,2.379-3.076,2.227-1.652-.186-2.213-2.447-2.78-3.724-.973-2.191-2.244-5.359.215-7.07" transform="translate(-470.166 -216.631)" fill="none" stroke="#fff" stroke-linecap="round" stroke-linejoin="round" stroke-width="2"/>
        <path id="Path_14565" data-name="Path 14565" d="M479.48,226.878a2.352,2.352,0,0,0,1.251-2.185,8.482,8.482,0,0,0-3.824-5.8,8.248,8.248,0,0,0-5.514-1.037" transform="translate(-471.393 -217.75)" fill="none" stroke="#fff" stroke-linecap="round" stroke-linejoin="round" stroke-width="2"/>
      </g>
      <g id="Group_12290" data-name="Group 12290" transform="translate(21.365)">
        <path id="Path_14566" data-name="Path 14566" d="M477.636,212.457a6.326,6.326,0,0,1-1.988,2.869" transform="translate(-472.43 -208.36)" fill="none" stroke="#fff" stroke-linecap="round" stroke-linejoin="round" stroke-width="2"/>
        <path id="Path_14567" data-name="Path 14567" d="M473.84,215.664c-.934-2.1,1.163-3.678,2.675-4.73.881-.612,2.15-1.874,3.309-1.337.94.433,1.084,1.783,1.133,2.687.121,2.2-.545,5.264-2.6,6.5a2.847,2.847,0,0,1-.565.26,2.1,2.1,0,0,1-1.128.067" transform="translate(-473.185 -209.467)" fill="none" stroke="#fff" stroke-linecap="round" stroke-linejoin="round" stroke-width="2"/>
        <path id="Path_14568" data-name="Path 14568" d="M476.568,213.139a1.811,1.811,0,0,1-.051,1.935,6.693,6.693,0,0,1-3.219,2.333" transform="translate(-473.299 -208.108)" fill="none" stroke="#fff" stroke-linecap="round" stroke-linejoin="round" stroke-width="2"/>
      </g>
      <g id="Group_12291" data-name="Group 12291" transform="translate(0 10.022)">
        <path id="Path_14569" data-name="Path 14569" d="M468.064,227.17a11.121,11.121,0,0,1-.052,3.7,4.27,4.27,0,0,1-1.744,3.1c-1.477.848-3.317-.037-3.961-.347a6.236,6.236,0,0,1-2.965-3.41,4.376,4.376,0,0,1-.114-2.69c.308-.855,1.025-1.121,1.794-1.455" transform="translate(-457.205 -213.345)" fill="none" stroke="#fff" stroke-linecap="round" stroke-linejoin="round" stroke-width="2"/>
        <path id="Path_14570" data-name="Path 14570" d="M464.876,224.234a1.2,1.2,0,1,1,.064,1.7A1.2,1.2,0,0,1,464.876,224.234Z" transform="translate(-455.171 -214.166)" fill="none" stroke="#fff" stroke-linecap="round" stroke-linejoin="round" stroke-width="2"/>
        <path id="Path_14571" data-name="Path 14571" d="M465.413,231.677l.01.008a3.057,3.057,0,0,0,2.858,2.31,6.288,6.288,0,0,0,4.2-1.667c.5-.5,1.951-1.95,1.636-3.628a3.5,3.5,0,0,0-1.495-2.11" transform="translate(-454.853 -213.151)" fill="none" stroke="#fff" stroke-linecap="round" stroke-linejoin="round" stroke-width="2"/>
        <path id="Path_14572" data-name="Path 14572" d="M464.694,225.616a1.205,1.205,0,1,1,1.629.5A1.2,1.2,0,0,1,464.694,225.616Z" transform="translate(-455.171 -214.166)" fill="none" stroke="#fff" stroke-linecap="round" stroke-linejoin="round" stroke-width="2"/>
        <path id="Path_14573" data-name="Path 14573" d="M469.5,220.587l.008-.008a3.529,3.529,0,0,1,2.476-.689c1.676.262,2.566,2.1,2.868,2.753a6.236,6.236,0,0,1,.189,4.512,3.071,3.071,0,0,1-3.157,1.928c-1.585-.081-3-.956-4.45-1.495" transform="translate(-454.107 -215.643)" fill="none" stroke="#fff" stroke-linecap="round" stroke-linejoin="round" stroke-width="2"/>
        <path id="Path_14574" data-name="Path 14574" d="M465.936,226.246a1.206,1.206,0,1,1,1.015-1.37A1.205,1.205,0,0,1,465.936,226.246Z" transform="translate(-455.171 -214.166)" fill="none" stroke="#fff" stroke-linecap="round" stroke-linejoin="round" stroke-width="2"/>
        <path id="Path_14575" data-name="Path 14575" d="M462.554,221.175a3.491,3.491,0,0,1,.16-2.575c.8-1.5,2.839-1.724,3.539-1.8a6.215,6.215,0,0,1,4.327,1.333,3.075,3.075,0,0,1,.781,3.594l-.007.008c-.606,1.472-1.9,2.517-2.9,3.719" transform="translate(-455.973 -216.782)" fill="none" stroke="#fff" stroke-linecap="round" stroke-linejoin="round" stroke-width="2"/>
        <path id="Path_14576" data-name="Path 14576" d="M466.944,225.281a1.206,1.206,0,1,1-.956-1.411A1.206,1.206,0,0,1,466.944,225.281Z" transform="translate(-455.171 -214.166)" fill="none" stroke="#fff" stroke-linecap="round" stroke-linejoin="round" stroke-width="2"/>
        <path id="Path_14577" data-name="Path 14577" d="M466.829,224.188c-.8-1.336-1.351-2.9-2.538-3.961a3.076,3.076,0,0,0-3.668-.463,6.237,6.237,0,0,0-2.685,3.635c-.163.695-.628,2.683.521,3.941a4.466,4.466,0,0,0,3.432,1.21,11.767,11.767,0,0,0,2.155-.293,10.305,10.305,0,0,0,1.472-.459" transform="translate(-457.706 -215.829)" fill="none" stroke="#fff" stroke-linecap="round" stroke-linejoin="round" stroke-width="2"/>
        <path id="Path_14578" data-name="Path 14578" d="M466.367,224.013a1.205,1.205,0,1,1-1.648.433A1.2,1.2,0,0,1,466.367,224.013Z" transform="translate(-455.171 -214.166)" fill="none" stroke="#fff" stroke-linecap="round" stroke-linejoin="round" stroke-width="2"/>
      </g>
    </g>
    <g id="Group_12294" data-name="Group 12294" transform="translate(449.369 190.75)">
      <path id="Path_14579" data-name="Path 14579" d="M468.621,239.571H450.735a1.367,1.367,0,0,1-1.366-1.367V213.912a2.015,2.015,0,0,1,2.014-2.014h5.929" transform="translate(-449.369 -182.922)" fill="none" stroke="#fff" stroke-linecap="round" stroke-linejoin="round" stroke-width="2"/>
      <path id="Path_14580" data-name="Path 14580" d="M459.136,211.9h3.856a2.015,2.015,0,0,1,2.014,2.014v2.629" transform="translate(-445.754 -182.922)" fill="none" stroke="#fff" stroke-linecap="round" stroke-linejoin="round" stroke-width="2"/>
      <g id="Group_12293" data-name="Group 12293" transform="translate(4.065 25.322)">
        <line id="Line_147" data-name="Line 147" y1="3.655" fill="none" stroke="#fff" stroke-linecap="round" stroke-linejoin="round" stroke-width="2"/>
        <line id="Line_148" data-name="Line 148" y2="3.655" transform="translate(11.122)" fill="none" stroke="#fff" stroke-linecap="round" stroke-linejoin="round" stroke-width="2"/>
      </g>
      <path id="Path_14581" data-name="Path 14581" d="M453.6,206.437v-11.86a3.826,3.826,0,0,1,3.826-3.827h0a3.826,3.826,0,0,1,3.827,3.827v11.86" transform="translate(-447.802 -190.75)" fill="none" stroke="#fff" stroke-linecap="round" stroke-linejoin="round" stroke-width="2"/>
      <path id="Path_14582" data-name="Path 14582" d="M452.594,204.521h12.5a2.816,2.816,0,0,1,2.816,2.816v3.638H449.778v-3.638A2.816,2.816,0,0,1,452.594,204.521Z" transform="translate(-449.218 -185.652)" fill="none" stroke="#fff" stroke-linecap="round" stroke-linejoin="round" stroke-width="2"/>
      <line id="Line_149" data-name="Line 149" x2="11.718" transform="translate(3.767 15.687)" fill="none" stroke="#fff" stroke-linecap="round" stroke-linejoin="round" stroke-width="2"/>
    </g>
  </g>
</svg>
