<svg xmlns="http://www.w3.org/2000/svg" width="41.984" height="51.214" viewBox="0 0 41.984 51.214">
  <g id="Group_12304" data-name="Group 12304" transform="translate(-263.951 -191.189)">
    <g id="Group_12303" data-name="Group 12303" transform="translate(283.689 219.364)">
      <path id="Path_14595" data-name="Path 14595" d="M292.964,219.461v2.822a.727.727,0,0,1-.727.727h-3.426v3.426a.726.726,0,0,1-.726.726H285.27a.726.726,0,0,1-.726-.726V223.01h-3.426a.727.727,0,0,1-.727-.727v-2.822a.727.727,0,0,1,.727-.727h3.426v-3.426a.726.726,0,0,1,.726-.726h2.815a.726.726,0,0,1,.726.726v3.426h3.426A.727.727,0,0,1,292.964,219.461Z" transform="translate(-280.392 -214.583)" fill="none" stroke="#fff" stroke-linecap="round" stroke-linejoin="round" stroke-width="2"/>
    </g>
    <path id="Path_14596" data-name="Path 14596" d="M299.821,232.918c-1.239,4.97-5.7,7.056-6.766,7.508a14.161,14.161,0,0,1-14.8-2.931c-3.091-2.932-4.729-7.081-8-9.882-.136-.117-.274-.232-.416-.342a27.052,27.052,0,0,0-4.889-3.078,2.446,2.446,0,0,1,.472-1.6c.887-1.1,2.729-.849,3.644-.725a10.7,10.7,0,0,1,4.362,1.777c.415.265.915.538,1.478.841l.59.24a2.518,2.518,0,0,0,2.431-.251,2.466,2.466,0,0,0,1.016-2.127l-1.091-20.123c-.069-1.38-.533-3.8,1.1-4.5,1.5-.637,3.046,1.059,3.212,2.419.43,3.5,1.126,9.02,1.441,11.57a1.305,1.305,0,0,0,.385.774l.053.053a1.364,1.364,0,0,0,1.655.226,1.315,1.315,0,0,0,.62-1.146l-.352-15.851a4.339,4.339,0,0,1,.529-2.254,2.221,2.221,0,0,1,3.331-.887c1.491,1.05,1.26,3.045,1.313,4.61.106,3.171.045,7.818.431,14.241a1.45,1.45,0,0,0,2.839.279l.525-14.412a2.151,2.151,0,0,1,1.717-2.07,2.087,2.087,0,0,1,2.451,2.152l-.782,16.483a1.266,1.266,0,0,0,.377.989.886.886,0,0,0,1.507-.465l.01-.041c.176-1.3.61-4.416.88-5.8a12.413,12.413,0,0,1,.657-2.69,2.613,2.613,0,0,1,.26-.455,1.619,1.619,0,0,1,2.919,1.041c-.063,1.427-.353,4.832-.353,4.832-.141.966-.231,1.94-.324,2.913-.29,3.035-.286,4.814-.42,12.035-.1,5.328-.434,11.441-5.285,14.741" fill="none" stroke="#fff" stroke-linecap="round" stroke-linejoin="round" stroke-width="2"/>
  </g>
</svg>
