<svg xmlns="http://www.w3.org/2000/svg" width="63.304" height="46.8" viewBox="0 0 63.304 46.8">
  <g id="Group_12302" data-name="Group 12302" transform="translate(-22.343 -196.897)">
    <circle id="Ellipse_267" data-name="Ellipse 267" cx="21.354" cy="21.354" r="21.354" transform="translate(33.456 197.897)" fill="none" stroke="#fff" stroke-linecap="round" stroke-linejoin="round" stroke-width="2"/>
    <path id="Path_14583" data-name="Path 14583" d="M36.4,228.063a17.4,17.4,0,0,1,14.262-27.39" transform="translate(4.153 1.166)" fill="none" stroke="#fff" stroke-linecap="round" stroke-linejoin="round" stroke-width="2"/>
    <path id="Path_14584" data-name="Path 14584" d="M59.836,205.976a17.4,17.4,0,0,1-14.328,27.293" transform="translate(9.302 3.393)" fill="none" stroke="#fff" stroke-linecap="round" stroke-linejoin="round" stroke-width="2"/>
    <g id="Group_12296" data-name="Group 12296" transform="translate(23.355 198.022)">
      <path id="Path_14585" data-name="Path 14585" d="M23.355,197.985l.109,9.192a3.045,3.045,0,0,0,3.243,2.806l1.125-.013a3.043,3.043,0,0,0,3.173-2.882l-.1-9.038" transform="translate(-23.355 -197.985)" fill="none" stroke="#fff" stroke-linecap="round" stroke-linejoin="round" stroke-width="2"/>
      <line id="Line_150" data-name="Line 150" x1="0.082" y1="6.858" transform="translate(2.648 0.298)" fill="none" stroke="#fff" stroke-linecap="round" stroke-linejoin="round" stroke-width="2"/>
      <line id="Line_151" data-name="Line 151" x1="0.084" y1="7.004" transform="translate(4.98 0.111)" fill="none" stroke="#fff" stroke-linecap="round" stroke-linejoin="round" stroke-width="2"/>
      <line id="Line_152" data-name="Line 152" y2="8.756" transform="translate(3.857 11.993)" fill="none" stroke="#fff" stroke-linecap="round" stroke-linejoin="round" stroke-width="2"/>
      <path id="Path_14586" data-name="Path 14586" d="M26.709,212.6h0a2.157,2.157,0,0,1,2.157,2.157v21.073H24.552V214.755A2.157,2.157,0,0,1,26.709,212.6Z" transform="translate(-22.852 -191.849)" fill="none" stroke="#fff" stroke-linecap="round" stroke-linejoin="round" stroke-width="2"/>
    </g>
    <g id="Group_12298" data-name="Group 12298" transform="translate(80.229 197.94)">
      <g id="Group_12297" data-name="Group 12297">
        <path id="Path_14587" data-name="Path 14587" d="M67.826,198.975c-.03,1.115-.216,10.389-.484,23.149H64.623c-.1-.511-.241-1.25-.388-2.136a59.614,59.614,0,0,1-.825-9.083c-.037-7.748,2.026-12.262,3.147-12.792.162-.077.649-.308.966-.1S67.833,198.78,67.826,198.975Z" transform="translate(-63.41 -197.927)" fill="none" stroke="#fff" stroke-linecap="round" stroke-linejoin="round" stroke-width="2"/>
      </g>
      <path id="Path_14588" data-name="Path 14588" d="M64.264,214.968v19.2a1.361,1.361,0,0,0,1.36,1.362h0a1.361,1.361,0,0,0,1.362-1.362v-19.2" transform="translate(-63.051 -190.771)" fill="none" stroke="#fff" stroke-linecap="round" stroke-linejoin="round" stroke-width="2"/>
    </g>
    <g id="Group_12301" data-name="Group 12301" transform="translate(42.26 210.404)">
      <g id="Group_12299" data-name="Group 12299" transform="translate(0 7.761)">
        <path id="Path_14589" data-name="Path 14589" d="M39.393,214.9a8.689,8.689,0,0,1,3.389-.182,6.887,6.887,0,0,1,3.026,1.059,6.63,6.63,0,0,1,2.581,4.332" transform="translate(-35.525 -211.138)" fill="none" stroke="#fff" stroke-linecap="round" stroke-linejoin="round" stroke-width="2"/>
        <path id="Path_14590" data-name="Path 14590" d="M45.942,219.045a2.779,2.779,0,0,1-1.737,1.1,5.431,5.431,0,0,1-2.566-.549,2.035,2.035,0,0,1-.268-.1,21.6,21.6,0,0,1-3.35-1.595c-.887-.52-1.688-1.4-1.21-2.481a4.545,4.545,0,0,1,1.981-1.8,10.47,10.47,0,0,1,3.274-1.247c1.626-.354,3.936-.342,5.207.893a2.383,2.383,0,0,1-.22,3.617" transform="translate(-36.669 -212.171)" fill="none" stroke="#fff" stroke-linecap="round" stroke-linejoin="round" stroke-width="2"/>
        <path id="Path_14591" data-name="Path 14591" d="M43.614,214.989a2.355,2.355,0,0,0-1.958,1.56" transform="translate(-34.575 -210.988)" fill="none" stroke="#fff" stroke-linecap="round" stroke-linejoin="round" stroke-width="2"/>
      </g>
      <g id="Group_12300" data-name="Group 12300" transform="translate(11.52)">
        <path id="Path_14592" data-name="Path 14592" d="M52.338,209.168a8.75,8.75,0,0,0-4.187,2.364,9.617,9.617,0,0,0-2.39,5.055,13.275,13.275,0,0,0,.075,5.817" transform="translate(-44.492 -205.671)" fill="none" stroke="#fff" stroke-linecap="round" stroke-linejoin="round" stroke-width="2"/>
        <path id="Path_14593" data-name="Path 14593" d="M47.167,214.3l-.183-.011a2.864,2.864,0,0,1-1.944-3.96,3.808,3.808,0,0,1,.427-.741c1.95-2.658,6.242-3.185,9.239-2.742,1.234.183,3.067.549,3.544,1.894.589,1.658-1.3,3.239-2.255,4.37-1.633,1.941-4.058,4.619-6.825,3.073" transform="translate(-44.783 -206.705)" fill="none" stroke="#fff" stroke-linecap="round" stroke-linejoin="round" stroke-width="2"/>
        <path id="Path_14594" data-name="Path 14594" d="M47.359,210.925a2.491,2.491,0,0,1,2.659.177" transform="translate(-43.701 -205.064)" fill="none" stroke="#fff" stroke-linecap="round" stroke-linejoin="round" stroke-width="2"/>
      </g>
    </g>
  </g>
</svg>
