<svg id="Layer_1" data-name="Layer 1" xmlns="http://www.w3.org/2000/svg" xmlns:xlink="http://www.w3.org/1999/xlink" viewBox="0 0 24.99 24.99"><defs><style>.cls-1,.cls-4,.cls-6{fill:none;}.cls-2{opacity:0.3;}.cls-3{fill:#fff;}.cls-4{stroke:#676d8e;}.cls-4,.cls-6{stroke-width:2px;}.cls-5{clip-path:url(#clip-path);}.cls-6{stroke:#01998c;}.cls-7{fill:#d0d2dc;fill-rule:evenodd;}</style><clipPath id="clip-path" transform="translate(0 -7.81)"><rect class="cls-1" x="7.81" width="17.18" height="20.31"/></clipPath></defs><g id="Group_12928" data-name="Group 12928"><g id="Ellipse_1748" data-name="Ellipse 1748" class="cls-2"><circle class="cls-3" cx="12.49" cy="12.49" r="12.49"/><circle class="cls-4" cx="12.49" cy="12.49" r="11.49"/></g><g class="cls-5"><g id="Mask_Group_68" data-name="Mask Group 68"><g id="Ellipse_1750" data-name="Ellipse 1750"><circle class="cls-1" cx="12.5" cy="12.5" r="12.49"/><circle class="cls-6" cx="12.5" cy="12.5" r="11.49"/></g></g></g><path id="Path_35797" data-name="Path 35797" class="cls-7" d="M17,20.28,10.85,24.1a.47.47,0,0,1-.63-.14.55.55,0,0,1-.07-.25V16.08a.46.46,0,0,1,.46-.46.42.42,0,0,1,.24.07L17,19.51a.45.45,0,0,1,.14.63.47.47,0,0,1-.14.14Z" transform="translate(0 -7.81)"/></g></svg>