<svg xmlns="http://www.w3.org/2000/svg" width="324.72" height="25.669" viewBox="0 0 324.72 25.669">
  <g id="Group_12917" data-name="Group 12917" transform="translate(-301.056 -433.429)">
    <path id="Path_14404" data-name="Path 14404" d="M552.027,449.088a6.688,6.688,0,0,0,1.143-2.013,31.992,31.992,0,0,0,.3-4.714c.01-.919.347-1.366,1.253-1.37,1.368-.006,2.743-.08,4.1.043.439.04,1.184.612,1.184.94a28.764,28.764,0,0,1-.356,5.975,7.05,7.05,0,0,1-5.491,5.5c-.234.062-.456.168-.817.3,1.269,1.357,2.794,1.215,4.219,1.01,2.995-.432,4.615-2.441,4.62-5.493,0-2.266.039-4.533-.017-6.8-.027-1.131.443-1.534,1.525-1.494,1.281.047,2.573-.067,3.843.062.445.045,1.193.6,1.2.927a73.514,73.514,0,0,1-.1,10.246c-.584,4.755-4.655,8.133-9.62,8.362a41.74,41.74,0,0,1-7.155-.233c-4.565-.582-7.093-3.637-7.091-8.211,0-3.164.037-6.329-.018-9.492-.022-1.231.458-1.712,1.661-1.661s2.4.046,3.591,0c1.055-.04,1.458.429,1.438,1.454-.034,1.71-.015,3.42,0,5.131,0,.447.071.894.109,1.341Z" transform="translate(-93.153 -2.881)" fill="#b52877"/>
    <path id="Path_14405" data-name="Path 14405" d="M379.606,448.975a1.968,1.968,0,0,0,1.615-1.954,37.337,37.337,0,0,0,.267-4.588c0-1.073.437-1.466,1.444-1.447,1.281.023,2.572-.072,3.842.049.459.044,1.25.57,1.246.869a31.7,31.7,0,0,1-.413,6.217,6.95,6.95,0,0,1-5.343,5.319,5.334,5.334,0,0,0-.6.2c-.067.028-.106.125-.193.233.931,1.051,2.171,1,3.4.961a5.206,5.206,0,0,0,5.332-5.475c0-2.308.035-4.616-.011-6.924-.022-1.055.4-1.476,1.436-1.449,1.324.035,2.656-.06,3.971.052.422.036,1.147.546,1.15.846a72.845,72.845,0,0,1-.15,10.489c-.634,4.728-4.665,7.989-9.588,8.207a48.191,48.191,0,0,1-7.153-.229,7.724,7.724,0,0,1-7.1-8.228c.153-3.155.065-6.324.01-9.486-.022-1.231.453-1.709,1.659-1.655s2.394.046,3.589,0c1.054-.04,1.458.436,1.444,1.455-.028,1.88-.011,3.761,0,5.641A6.188,6.188,0,0,0,379.606,448.975Z" transform="translate(-27.405 -2.883)" fill="#b52877"/>
    <path id="Path_14406" data-name="Path 14406" d="M703.312,454.354c0-1.977.109-3.81-.035-5.624-.112-1.413-2.916-2.461-3.945-1.537a2.413,2.413,0,0,0-.439,1.165c-.867,3.43-1.754,6.857-2.559,10.3-.246,1.052-.7,1.541-1.823,1.488-1.408-.069-2.822,0-4.233-.022-1.171-.016-1.423-.36-1.082-1.506,1.057-3.555,2.134-7.1,3.2-10.657.071-.237.09-.49.166-.924-.751,0-1.418,0-2.086,0a1.1,1.1,0,0,1-1.247-1.265,32.682,32.682,0,0,1,.056-3.585c.051-.422.679-1.105,1.044-1.106,4.783-.007,9.581-.124,14.343.222,3.712.271,5.943,3.053,6.006,6.782.061,3.548,0,7.1.035,10.648.01.986-.38,1.408-1.355,1.4q-4.233-.025-8.467,0c-.979,0-1.386-.5-1.382-1.431s.018-1.882-.006-2.823c-.027-1.08.469-1.575,1.551-1.53C701.765,454.378,702.481,454.354,703.312,454.354Z" transform="translate(-148.315 -2.916)" fill="#b52877"/>
    <path id="Path_14407" data-name="Path 14407" d="M492.466,450.411c0-2.565-.008-5.132,0-7.7.007-1.419.3-1.722,1.741-1.7,3.459.051,6.93-.035,10.371.243,4.473.361,6.643,2.837,6.718,7.315.056,3.335,0,6.672.02,10.007.009,1.144-.458,1.565-1.622,1.556-5.174-.045-10.349-.015-15.523-.022-1.392,0-1.7-.321-1.706-1.746C492.46,455.715,492.467,453.063,492.466,450.411Zm11.8,3.92c0-1.523,0-2.876,0-4.23,0-2.86-2.116-4.307-4.807-3.256a1.006,1.006,0,0,0-.43.778c-.036,1.959-.052,3.92.017,5.877a1.148,1.148,0,0,0,.787.793C501.235,454.377,502.639,454.331,504.271,454.331Z" transform="translate(-73.166 -2.899)" fill="#b52877"/>
    <path id="Path_14408" data-name="Path 14408" d="M609.551,455.534c-1.221-4.361-2.4-8.543-3.564-12.727-.465-1.664-.346-1.813,1.418-1.816,1.5,0,3,.054,4.489-.017,1.031-.049,1.43.4,1.63,1.35.736,3.5,1.53,7,2.311,10.491.09.4.236.791.376,1.251a3.055,3.055,0,0,0,2.032-3.177c.035-2.694.01-5.389.016-8.083,0-1.555.25-1.809,1.749-1.815,1.411,0,2.823.028,4.233-.008.964-.024,1.441.377,1.431,1.349-.035,3.762.057,7.53-.141,11.284a6.013,6.013,0,0,1-4.155,5.394,43.834,43.834,0,0,1-7.024,1.787c-2.465.485-4.971.754-7.456,1.142-1.114.174-1.589-.219-1.5-1.381a22.157,22.157,0,0,0,0-2.821,1.364,1.364,0,0,1,1.35-1.64C607.632,455.978,608.5,455.751,609.551,455.534Z" transform="translate(-116.332 -2.883)" fill="#b52877"/>
    <path id="Path_14409" data-name="Path 14409" d="M448.389,455.544c-1.214-4.351-2.371-8.494-3.527-12.637-.5-1.8-.416-1.914,1.4-1.916,1.454,0,2.91.052,4.36-.018a1.459,1.459,0,0,1,1.745,1.38c.72,3.463,1.517,6.91,2.291,10.362.093.411.218.815.329,1.221,1.434-.388,2.073-1.293,2.094-3.079.033-2.693.007-5.387.014-8.08,0-1.528.256-1.78,1.779-1.786,1.411,0,2.822.023,4.232-.009.978-.022,1.413.421,1.4,1.378-.035,3.718.047,7.442-.129,11.153a6.258,6.258,0,0,1-4.186,5.524,23.144,23.144,0,0,1-4.888,1.4c-3.1.578-6.221,1.029-9.343,1.462-1.6.222-1.709.069-1.715-1.491,0-.94.028-1.882-.009-2.821a1.285,1.285,0,0,1,1.247-1.47C446.407,455.959,447.314,455.758,448.389,455.544Z" transform="translate(-54.734 -2.882)" fill="#b52877"/>
    <path id="Path_14410" data-name="Path 14410" d="M420.249,460.144c-.94,0-1.881-.022-2.82.007-1.041.031-1.477-.45-1.436-1.478.037-.938,0-1.88.009-2.82.007-1.512.206-1.719,1.679-1.73,1.41-.01,2.821.017,4.23-.02a2.621,2.621,0,0,0,2.811-2.806c.019-.469.019-.941,0-1.41a2.654,2.654,0,0,0-2.819-2.816q-2.178-.062-4.358-.007c-1.066.028-1.6-.357-1.552-1.489.049-1.109-.086-2.235.059-3.327.058-.437.651-1.15,1-1.148a52.409,52.409,0,0,1,8.292.34c3.946.652,6.2,3.741,6.413,8.267a15.091,15.091,0,0,1-.34,4.062c-.943,4.076-3.975,6.266-8.6,6.372C421.959,460.161,421.1,460.144,420.249,460.144Z" transform="translate(-43.931 -2.93)" fill="#b52877"/>
    <path id="Path_14411" data-name="Path 14411" d="M311.506,448.74c-.983,0-1.966.018-2.948,0-1.252-.028-1.612-.542-.9-1.6a33.292,33.292,0,0,1,2.784-3.315c.479-.542,1.048-1.007,1.523-1.552.461-.53.952-1.29.229-1.768-.516-.342-1.383-.162-2.095-.187-.095,0-.24.133-.285.238-.761,1.774-2.3,1.555-3.792,1.521-1.2-.028-2.393.014-3.588-.009s-1.536-.455-1.311-1.591c.791-4,3.666-5.788,7.278-6.641a15.874,15.874,0,0,1,7.861.186c3.6.975,5.551,3.582,4.845,6.851a10.684,10.684,0,0,1-2.042,3.742,31.867,31.867,0,0,1-3.164,3.516,2.251,2.251,0,0,1-1.317.583C313.562,448.8,312.531,448.74,311.506,448.74Z" fill="#b52877"/>
    <path id="Path_14412" data-name="Path 14412" d="M672.689,453.256c0,1.793-.023,3.587.008,5.379.019,1.1-.46,1.531-1.55,1.491-1.45-.053-2.9-.039-4.354,0-1.1.027-1.533-.5-1.528-1.552.017-3.031.014-6.063.005-9.094-.005-1.933-.765-2.683-2.727-2.692-2.562-.01-5.124-.036-7.685.01-1.226.022-1.705-.514-1.658-1.691.038-.938-.007-1.879.018-2.818.022-.8.41-1.292,1.263-1.276,3.751.07,7.514-.007,11.25.264,4.3.311,6.639,2.853,6.88,7.118.092,1.616.015,3.242.015,4.863Z" transform="translate(-134.607 -2.898)" fill="#b52877"/>
    <path id="Path_14413" data-name="Path 14413" d="M772.6,440.842c1.827.089,3.666.084,5.479.288,3.148.355,5.156,2.188,5.491,5.308a34.836,34.836,0,0,1,.036,8.253c-.46,3.438-2.774,5.246-6.506,5.568a18.329,18.329,0,0,1-4.7-.21,6.339,6.339,0,0,1-5.42-6.092c-.183-3.962-.1-7.934-.143-11.9-.01-.9.43-1.168,1.279-1.141,1.492.048,2.987.014,4.481.014Zm-2.959,7.831c0,1.2-.013,2.391,0,3.585.044,3.455,1.753,5.416,5.2,5.494s5.568-.75,6.073-4.215a22.017,22.017,0,0,0,.035-5.613,4.461,4.461,0,0,0-4.3-4.329,45,45,0,0,0-6.255-.138c-.257,0-.709.55-.725.864C769.6,445.768,769.642,447.222,769.642,448.673Z" transform="translate(-178.047 -2.834)" fill="#b52877"/>
    <path id="Path_14414" data-name="Path 14414" d="M337.941,450.551c0-2.646.016-5.292-.009-7.937-.01-1.108.411-1.661,1.583-1.628,1.578.044,3.158.035,4.736,0,1.1-.023,1.515.5,1.512,1.559q-.025,8,0,16c.006,1.167-.519,1.6-1.638,1.565-1.535-.043-3.073-.046-4.608,0-1.171.035-1.6-.516-1.586-1.625C337.957,455.843,337.941,453.2,337.941,450.551Z" transform="translate(-14.096 -2.888)" fill="#b52877"/>
    <path id="Path_14415" data-name="Path 14415" d="M596.226,450.681c0,2.6-.023,5.207.01,7.81.015,1.125-.419,1.654-1.581,1.623q-2.3-.063-4.609,0c-1.127.032-1.647-.418-1.643-1.571q.027-8,0-16c0-1.05.421-1.578,1.528-1.552,1.578.038,3.159.044,4.736,0,1.179-.035,1.58.518,1.567,1.631C596.2,445.3,596.226,447.993,596.226,450.681Z" transform="translate(-109.839 -2.887)" fill="#b52877"/>
    <path id="Path_14416" data-name="Path 14416" d="M732.842,457.594c.143-4.766.28-9.353.421-14.035a3.871,3.871,0,0,0-.871-.092c-1.012.095-1.369-.358-1.355-1.341.014-1.014.558-1.19,1.408-1.163,3.11.1,6.245-.046,9.326.3a6.21,6.21,0,0,1,5.69,6.36c.135,3.713.065,7.432.12,11.148.016,1.109-.534,1.345-1.52,1.343s-1.365-.331-1.35-1.343c.044-3.119.035-6.239.008-9.358-.025-2.937-1.1-4.9-3.287-5.5a18.146,18.146,0,0,0-4.424-.4c-.268,0-.759.653-.786,1.032q-.326,4.524-.491,9.059c-.061,1.706-.006,3.417.044,5.125.028.969-.324,1.42-1.343,1.37-1.151-.056-2.307.008-3.46-.027-.887-.027-1.428-.4-1.369-1.426.06-1.05.691-1.118,1.495-1.066C731.643,457.622,732.193,457.594,732.842,457.594Z" transform="translate(-163.812 -2.879)" fill="#b52877"/>
    <path id="Path_14417" data-name="Path 14417" d="M811.2,451.249a4.059,4.059,0,0,0,2.557-3.648c.046-1.536.068-3.075.148-4.609.048-.927-.428-2.2,1.357-2.086,1.376.088,1.441.1,1.44,2.041,0,1.411.056,2.826-.02,4.232a7,7,0,0,1-3.965,6.177c1.127,1.588,2.21,3.053,3.218,4.568.379.569,1.307,1.122.491,1.96-.472.484-2.33.128-2.826-.483-.4-.5-.751-1.038-1.122-1.561q-2.9-4.075-5.8-8.149c-.217-.3-.478-.578-.754-.908-1.964,1.36-2.415,3.327-2.513,5.415-.074,1.578-.035,3.163-.015,4.745.012.959-.561,1.11-1.339,1.109s-1.4-.13-1.392-1.076c.022-2.135-.007-4.275.124-6.4a7.467,7.467,0,0,1,3.637-6.016c-.853-1.206-1.672-2.288-2.4-3.425-.395-.617-1.381-1.182-.6-2.076.474-.544,2.425-.034,2.958.7,1.7,2.355,3.387,4.723,5.08,7.084C810.036,449.634,810.608,450.422,811.2,451.249Z" transform="translate(-190.98 -2.828)" fill="#b52877"/>
    <path id="Path_14418" data-name="Path 14418" d="M363.461,446.645c0,1.365-.014,2.73.007,4.094.014.939-.355,1.431-1.352,1.415-1.663-.027-3.327-.017-4.99,0-.983.008-1.365-.487-1.36-1.43q.025-4.159,0-8.316c-.006-.958.408-1.417,1.379-1.408,1.663.017,3.327.019,4.99,0,.907-.012,1.333.39,1.324,1.3C363.448,443.746,363.459,445.2,363.461,446.645Z" transform="translate(-20.913 -2.892)" fill="#b52877"/>
    <path id="Path_14419" data-name="Path 14419" d="M535.427,446.568q0,2.175,0,4.351c0,.845-.409,1.239-1.26,1.231-1.706-.015-3.412-.007-5.119,0-.91,0-1.308-.457-1.305-1.35q.014-4.223,0-8.446c0-.891.385-1.357,1.3-1.353,1.706.006,3.412.02,5.119,0,.954-.014,1.281.488,1.277,1.351-.006,1.408,0,2.816,0,4.224Z" transform="translate(-86.652 -2.892)" fill="#b52877"/>
    <path id="Path_14420" data-name="Path 14420" d="M653.213,459.892c0-1.238.009-2.477,0-3.715-.009-.995.426-1.5,1.46-1.485,1.494.023,2.989.035,4.482,0,1.019-.027,1.5.377,1.489,1.421q-.033,3.907,0,7.813c.009,1.042-.461,1.454-1.481,1.428-1.493-.036-2.989-.028-4.482,0-1.038.017-1.47-.5-1.465-1.485C653.219,462.539,653.213,461.215,653.213,459.892Z" transform="translate(-134.612 -8.126)" fill="#b52877"/>
    <path id="Path_14421" data-name="Path 14421" d="M315.24,460.517c.681,0,1.362,0,2.044,0,1.564.007,1.706.133,1.72,1.639.012,1.362-.019,2.725,0,4.086.014.888-.33,1.344-1.271,1.331-1.745-.025-3.491-.008-5.236-.006-.843,0-1.235-.4-1.221-1.257.023-1.49.028-2.981,0-4.47-.019-.912.366-1.342,1.283-1.324.894.017,1.788,0,2.682,0Z" transform="translate(-3.906 -10.354)" fill="#b52877"/>
  </g>
</svg>
