<svg xmlns="http://www.w3.org/2000/svg" width="93.123" height="107.033" viewBox="0 0 93.123 107.033">
  <g id="Group_12918" data-name="Group 12918" transform="translate(0)">
    <path id="Path_14326" data-name="Path 14326" d="M793.086-165.068a17.438,17.438,0,0,1,1.534-8.655,15.461,15.461,0,0,1,6.45-6.918,10.972,10.972,0,0,0,2.812-17.013,10.668,10.668,0,0,0-17.21,2.026,12.445,12.445,0,0,0-1.442,5.276c-.119,1.907-1.275,3.085-3,3.017a2.921,2.921,0,0,1-2.8-3.258c.343-6.55,3.291-11.573,9.152-14.582a16.466,16.466,0,0,1,23.522,10.914,16.859,16.859,0,0,1-8.039,18.639,9.645,9.645,0,0,0-5.114,8.825c-.021,1.842.026,3.685-.023,5.527a2.972,2.972,0,0,1-2.171,2.9,2.97,2.97,0,0,1-3.156-1.161,2.971,2.971,0,0,1-.519-1.834C793.092-162.427,793.086-163.485,793.086-165.068Z" transform="translate(-749.426 207)" fill="#0b9e93"/>
    <path id="Path_14327" data-name="Path 14327" d="M598.531,72.919a13.8,13.8,0,0,1-5.275-6.606A31.592,31.592,0,0,1,590.974,52.3a65.414,65.414,0,0,1,5.164-22.71A59.135,59.135,0,0,1,613.62,5.992a19.658,19.658,0,0,1,6.847-3.787c4.841-1.4,8.289.1,10.385,4.687a19.069,19.069,0,0,1,1.914,6.91c-.715-1.3-.915-2.649-1.519-3.842-1.165-2.3-2.632-4.213-5.421-4.412A10.476,10.476,0,0,0,619.969,7.1a38.716,38.716,0,0,0-10.311,8.93,62.343,62.343,0,0,0-14.48,32.421,38.081,38.081,0,0,0,.522,15.435c.894,3.355,2.609,6.148,6.1,7.442a11.708,11.708,0,0,0,3.529.45,9.888,9.888,0,0,1-3.637.759c-.78-.053-1.568-.009-2.351.016C599.033,72.561,598.617,72.4,598.531,72.919Z" transform="translate(-590.935 31.517)" fill="#b42e79"/>
    <path id="Path_14328" data-name="Path 14328" d="M941.054,71.605a8.581,8.581,0,0,0,8.457-4.277,14.682,14.682,0,0,0,1.807-4.755c1.331-6.475.755-12.89-.67-19.265a62.851,62.851,0,0,0-10.013-22.891A50.773,50.773,0,0,0,928.461,7.975a14.027,14.027,0,0,0-6.084-2.516A5.71,5.71,0,0,0,916.6,7.917a18.385,18.385,0,0,0-2.2,4.422c-.2.024-.363-.081-.316-.275a18.629,18.629,0,0,1,3.619-8.113c2.26-2.64,5.139-2.837,8.227-1.991,4.15,1.137,7.369,3.781,10.391,6.671,10.438,9.984,16.353,22.3,18.7,36.448a44.6,44.6,0,0,1,.23,14.851c-.778,4.589-2.281,8.846-5.92,12.037-.279.245-.6.438-.906.655a1.029,1.029,0,0,0-.766-.217A18.166,18.166,0,0,1,941.054,71.605Z" transform="translate(-862.638 31.673)" fill="#b42e79"/>
    <path id="Path_14329" data-name="Path 14329" d="M705.673,115.1c-2.744-2.233-5.129-4.708-4.958-8.762.593.3.774.827,1.06,1.241a16.039,16.039,0,0,0,8.488,6.554,10.283,10.283,0,0,0,7.2-.312c.671-.277.954-.18.967.551a.346.346,0,0,0,.013.1c.683,2.026-.01,3.456-1.409,5.1a19.769,19.769,0,0,0-4.6,16.3,8.292,8.292,0,0,1,.47,2.3c-2.633-1.79-2.921-4.394-2.948-7.364a37.728,37.728,0,0,1-13.333,13.4,1.563,1.563,0,0,1,.5-1.97c2.353-2.417,4.648-4.887,6.785-7.5a25.079,25.079,0,0,0,3.348-4.908c-3.113,1.542-6.037,2.751-9.609,1.758,1.6-.52,2.983-.852,4.269-1.409a19.188,19.188,0,0,0,8.776-7.4,19.278,19.278,0,0,1,4.054-5.034c-.1-.165-.126-.268-.164-.272-2-.173-4-.48-6-.472a11.918,11.918,0,0,0-9.063,4.046c-.3.329-.729.933-1,.771-.515-.31.012-.815.153-1.228,1-2.938,3.249-4.4,6.106-5.134C705.054,115.381,705.4,115.476,705.673,115.1Z" transform="translate(-679.651 -56.469)" fill="#12a094"/>
    <path id="Path_14330" data-name="Path 14330" d="M919.283,253.257a18.169,18.169,0,0,0,6.595.8,1.028,1.028,0,0,1,.765.217,11.968,11.968,0,0,1-9.065,2.664c-5.3-.531-9.5-3.282-13-7.064a70.807,70.807,0,0,1-12.232-17.54,47.022,47.022,0,0,1-4.081-13.119c-.071-.459-.054-.933-.091-1.667a97.115,97.115,0,0,0,6.745,12.147,129.728,129.728,0,0,0,12.436,16.581A20.4,20.4,0,0,0,919.283,253.257Z" transform="translate(-840.867 -149.978)" fill="#2097ce"/>
    <path id="Path_14331" data-name="Path 14331" d="M638.661,254.872c.086-.523.5-.358.81-.368.783-.025,1.571-.069,2.351-.016a9.888,9.888,0,0,0,3.637-.759,20.083,20.083,0,0,0,12.174-6.912,132.682,132.682,0,0,0,13.559-18.286,107.419,107.419,0,0,0,5.741-10.438,33.879,33.879,0,0,1-1.241,6.73c-2.226,8.26-6.676,15.3-12.009,21.858a34.906,34.906,0,0,1-7.726,7.528,17.291,17.291,0,0,1-10.143,3.253A11.421,11.421,0,0,1,638.661,254.872Z" transform="translate(-631.065 -150.436)" fill="#2097ce"/>
    <path id="Path_14332" data-name="Path 14332" d="M939.208,133.42a5.82,5.82,0,0,1-2.736,4.143,16.385,16.385,0,0,0,.906-5.757c-.316-5.975-2.421-11.135-6.986-15.145a1.116,1.116,0,0,1-.486-1.288,10.254,10.254,0,0,0,.261-2.127c.028-.59.172-.851.78-.53,6.477,3.41,13.439-.747,16.571-5.489.348-.527.718-1.04,1.192-1.725a6.978,6.978,0,0,1-1.06,4.914,12.554,12.554,0,0,1-3.133,3.463c-.206.164-.55.293-.512.59.044.344.436.255.676.325a9.019,9.019,0,0,1,5.8,4.348,2.641,2.641,0,0,1,.4,1.145c-.138.484-.394.476-.72.171a12.607,12.607,0,0,0-11.666-3.934,27.263,27.263,0,0,1-2.751.133c-.22.012-.514-.073-.617.22-.079.223.135.367.25.521a5.5,5.5,0,0,1,1.016,1.391c-.2.115-.5.443-.37.471.842.183.884,1.267,1.7,1.424l.013.029a4.742,4.742,0,0,0,1.918,2.784l-.014-.013c-.053.311.09.453.394.455l.18.222a3.478,3.478,0,0,0,2.264,2.236l-.007-.006c.007.318.186.428.481.4a.1.1,0,0,1,.124.075c.105.8.651.968,1.336.945l.066,0,.033.058c.031.4.328.383.612.384l.226.088.162.123.016.011a1.188,1.188,0,0,0,.722.794,10.189,10.189,0,0,0,2.985,1.03c.279.033.571.021.569.411s-.291.422-.571.4a4.9,4.9,0,0,1-1.272-.182c-1.025-.34-1.965-1.111-3.157-.8l-.047.025-.04-.035c-.074-.585-.52-.392-.864-.413l-.089.006-.072-.053c-.134-.8-.933-.657-1.419-.891-.2-.1-.318.575-.423.919-.4-.032-.539.155-.659.544-.133.431-.021.935-.365,1.3-.212-.126-.3-.444-.616-.409h0a2.264,2.264,0,0,0-.078-.695c-.136-.3-.382-.68-.718-.625-.39.064-.215.507-.219.783C939.184,131.527,939.2,132.473,939.208,133.42Zm3.787-5.432-.169-.073c-.024.057-.08.125-.064.166s.1.052.16.077Z" transform="translate(-875.912 -55.764)" fill="#11a094"/>
    <path id="Path_14333" data-name="Path 14333" d="M855.067,118.5a4.5,4.5,0,0,1,4.54-4.425,4.54,4.54,0,1,1-4.54,4.425Z" transform="translate(-813.029 -62.97)" fill="#0b9e93"/>
    <path id="Path_14334" data-name="Path 14334" d="M996.588,252.514c.105-.345.225-1.015.423-.919.487.234,1.285.088,1.42.891l-1.124-.4c-.254.333.027.537.117.764,1.587,4,4.648,6.87,7.529,9.884.508.531,1.216.926,1.383,1.717.051.241.477.432.172.7-.253.224-.5-.022-.732-.153a32.733,32.733,0,0,1-6.741-5.081,20.8,20.8,0,0,1-4.087-5.967c.319-.035.4.282.616.409a1.27,1.27,0,0,0,.827,1.037c-.12.725.728.569.939,1.016.059.126-.038.734.446.316a.5.5,0,0,0,.067-.792,1.662,1.662,0,0,0-1.446-.546c.087-.236-.116-.866.262-.654,1.108.62.465-.275.586-.557C997.589,253.383,996.8,253.07,996.588,252.514Z" transform="translate(-930.647 -178.598)" fill="#12a094"/>
    <path id="Path_14335" data-name="Path 14335" d="M1023.816,251.474c1.193-.307,2.132.464,3.157.8a4.906,4.906,0,0,0,1.272.182c.28.02.57-.013.571-.4s-.291-.379-.569-.411a10.187,10.187,0,0,1-2.985-1.03,1.189,1.189,0,0,1-.722-.794c1.99.955,4.087,1.631,6.163,2.425C1028.275,253.209,1026.018,252.605,1023.816,251.474Z" transform="translate(-954.92 -177.116)" fill="#12a094"/>
    <path id="Path_14336" data-name="Path 14336" d="M988.4,261.754c-.006-.946-.025-1.893-.009-2.839,0-.276-.171-.72.219-.783.335-.055.581.32.718.625a2.279,2.279,0,0,1,.078.695c-.431-.283-.591-.1-.631.349A4.874,4.874,0,0,1,988.4,261.754Z" transform="translate(-925.104 -184.099)" fill="#12a094"/>
    <path id="Path_14337" data-name="Path 14337" d="M981.336,203.859a4.739,4.739,0,0,1-1.918-2.784A15.03,15.03,0,0,1,981.336,203.859Z" transform="translate(-917.589 -136.127)" fill="#12a094"/>
    <path id="Path_14338" data-name="Path 14338" d="M997.249,224.972a3.479,3.479,0,0,1-2.264-2.236Z" transform="translate(-930.678 -154.341)" fill="#12a094"/>
    <path id="Path_14339" data-name="Path 14339" d="M970.187,190.878c-.816-.157-.858-1.242-1.7-1.424-.132-.029.168-.356.37-.471A7.124,7.124,0,0,1,970.187,190.878Z" transform="translate(-908.371 -125.959)" fill="#12a094"/>
    <path id="Path_14340" data-name="Path 14340" d="M1057.489,198.568c.327.3.582.312.72-.171.382.37.355.841.414,1.457A2.8,2.8,0,0,1,1057.489,198.568Z" transform="translate(-983.234 -133.875)" fill="#2097ce"/>
    <path id="Path_14341" data-name="Path 14341" d="M1014.3,240.669c-.684.023-1.23-.149-1.335-.945A3.953,3.953,0,0,1,1014.3,240.669Z" transform="translate(-945.799 -168.625)" fill="#12a094"/>
    <path id="Path_14342" data-name="Path 14342" d="M1017.843,257.459c.344.021.79-.172.864.413A1.2,1.2,0,0,1,1017.843,257.459Z" transform="translate(-949.898 -183.526)" fill="#12a094"/>
    <path id="Path_14343" data-name="Path 14343" d="M1022.594,246.4c-.284,0-.581.02-.612-.384A.882.882,0,0,1,1022.594,246.4Z" transform="translate(-953.378 -173.915)" fill="#12a094"/>
    <path id="Path_14344" data-name="Path 14344" d="M991.716,218.938c-.3,0-.446-.144-.394-.455A.635.635,0,0,1,991.716,218.938Z" transform="translate(-927.589 -150.764)" fill="#12a094"/>
    <path id="Path_14345" data-name="Path 14345" d="M1009.645,237.149c-.3.031-.474-.08-.481-.4A.736.736,0,0,1,1009.645,237.149Z" transform="translate(-942.6 -166.125)" fill="#12a094"/>
    <path id="Path_14346" data-name="Path 14346" d="M1027.41,249.1l-.162-.123Z" transform="translate(-957.806 -176.408)" fill="#12a094"/>
    <path id="Path_14347" data-name="Path 14347" d="M999.841,257.4c.208.557,1,.869.657,1.665-.122.282.521,1.176-.586.557-.378-.211-.175.419-.262.654l-.006.006a1.271,1.271,0,0,1-.828-1.037c.345-.366.232-.87.365-1.3C999.3,257.555,999.441,257.368,999.841,257.4Z" transform="translate(-933.899 -183.485)" fill="#0b9e93"/>
    <path id="Path_14348" data-name="Path 14348" d="M1011.181,246.4l-.073.17c-.056-.025-.145-.036-.16-.077s.04-.11.064-.166Z" transform="translate(-944.098 -174.174)" fill="#12a094"/>
    <path id="Path_14349" data-name="Path 14349" d="M1003.959,275.468a1.662,1.662,0,0,1,1.446.546.5.5,0,0,1-.067.791c-.484.418-.387-.19-.447-.316-.211-.447-1.059-.29-.939-1.016Z" transform="translate(-938.209 -198.676)" fill="#2097ce"/>
  </g>
</svg>
