<svg id="Layer_1" data-name="Layer 1" xmlns="http://www.w3.org/2000/svg" xmlns:xlink="http://www.w3.org/1999/xlink" viewBox="0 0 451.06 118"><defs><style>.cls-1{fill:none;}.cls-2{fill:#b52877;}.cls-3{clip-path:url(#clip-path);}.cls-4{fill:#fff;}.cls-5{fill:#0b9e93;}.cls-6{fill:#b42e79;}.cls-7{fill:#12a094;}.cls-8{fill:#2097ce;}.cls-9{fill:#11a094;}</style><clipPath id="clip-path" transform="translate(0 24)"><rect class="cls-1" x="321.72" width="194" height="135"/></clipPath></defs><g id="Group_12929" data-name="Group 12929"><g id="Group_12928" data-name="Group 12928"><g id="Group_12506" data-name="Group 12506"><path id="Path_14404" data-name="Path 14404" class="cls-2" d="M157.82,49.11a6.79,6.79,0,0,0,1.14-2,31.09,31.09,0,0,0,.3-4.72c0-.92.35-1.36,1.25-1.37,1.37,0,2.75-.08,4.1.05.44,0,1.19.61,1.19.94a28.44,28.44,0,0,1-.36,6,7,7,0,0,1-5.49,5.5c-.23.06-.46.17-.82.3,1.27,1.36,2.8,1.22,4.22,1,3-.43,4.62-2.44,4.62-5.49,0-2.27,0-4.54,0-6.8,0-1.13.44-1.54,1.52-1.5,1.28,0,2.57-.06,3.84.07.45,0,1.2.6,1.2.92a71.56,71.56,0,0,1-.1,10.25c-.58,4.75-4.65,8.13-9.62,8.36a41.67,41.67,0,0,1-7.15-.23c-4.57-.58-7.09-3.64-7.09-8.21,0-3.17,0-6.33,0-9.5,0-1.23.46-1.71,1.66-1.66s2.4,0,3.59,0,1.46.43,1.44,1.46c0,1.71,0,3.42,0,5.13,0,.45.07.89.11,1.34Z" transform="translate(0 24)"/><path id="Path_14405" data-name="Path 14405" class="cls-2" d="M51.14,49a2,2,0,0,0,1.62-2A39,39,0,0,0,53,42.45c0-1.07.43-1.46,1.44-1.44,1.28,0,2.57-.08,3.84,0,.46.05,1.25.57,1.25.87a31.58,31.58,0,0,1-.41,6.22,7,7,0,0,1-5.35,5.32,4.69,4.69,0,0,0-.6.2c-.06,0-.1.12-.19.23.93,1,2.17,1,3.4,1a5.21,5.21,0,0,0,5.34-5.07c0-.13,0-.27,0-.4,0-2.31,0-4.62,0-6.93,0-1.05.4-1.47,1.44-1.44,1.32,0,2.65-.06,4,.05.42,0,1.15.54,1.15.84a73.46,73.46,0,0,1-.15,10.49c-.64,4.73-4.67,8-9.59,8.21a48.74,48.74,0,0,1-7.15-.23,7.72,7.72,0,0,1-7.1-8.23c.15-3.15.06-6.32,0-9.48,0-1.23.45-1.71,1.66-1.66s2.39,0,3.58,0S51,41.44,51,42.46c0,1.88,0,3.76,0,5.64A6.6,6.6,0,0,0,51.14,49Z" transform="translate(0 24)"/><path id="Path_14406" data-name="Path 14406" class="cls-2" d="M253.94,54.34c0-2,.11-3.81,0-5.62-.12-1.42-2.92-2.46-3.95-1.54a2.42,2.42,0,0,0-.44,1.16c-.87,3.43-1.75,6.86-2.56,10.3-.24,1.06-.7,1.55-1.82,1.49-1.41-.07-2.82,0-4.23,0-1.17,0-1.43-.36-1.08-1.51,1-3.55,2.13-7.1,3.2-10.65a8.55,8.55,0,0,0,.16-.93h-2.08a1.09,1.09,0,0,1-1.25-.92,1,1,0,0,1,0-.34,33.08,33.08,0,0,1,0-3.59c.06-.42.68-1.1,1.05-1.1,4.78,0,9.58-.13,14.34.22,3.71.27,5.94,3.05,6,6.78.06,3.55,0,7.1,0,10.65,0,1-.38,1.41-1.35,1.4-2.82,0-5.65,0-8.47,0-1,0-1.39-.5-1.38-1.43s0-1.88,0-2.82.47-1.58,1.55-1.53C252.39,54.36,253.11,54.34,253.94,54.34Z" transform="translate(0 24)"/><path id="Path_14407" data-name="Path 14407" class="cls-2" d="M118.24,50.41v-7.7c0-1.41.3-1.72,1.74-1.7,3.46.05,6.93,0,10.38.25,4.47.36,6.64,2.83,6.71,7.31.06,3.34,0,6.67,0,10,0,1.14-.45,1.56-1.62,1.55-5.17,0-10.35,0-15.52,0-1.39,0-1.7-.32-1.71-1.74ZM130,54.33V50.1c0-2.86-2.11-4.3-4.8-3.25a1,1,0,0,0-.43.78c0,2-.06,3.92,0,5.87a1.16,1.16,0,0,0,.79.8c1.4.08,2.81,0,4.44,0Z" transform="translate(0 24)"/><path id="Path_14408" data-name="Path 14408" class="cls-2" d="M192.16,55.55c-1.22-4.36-2.4-8.54-3.56-12.72-.47-1.67-.35-1.82,1.42-1.82,1.5,0,3,.05,4.49,0,1-.05,1.43.4,1.63,1.35.73,3.5,1.53,7,2.31,10.49.09.4.23.79.37,1.26a3.05,3.05,0,0,0,2-3.18c0-2.7,0-5.39,0-8.08,0-1.56.25-1.81,1.75-1.82s2.82,0,4.23,0c1,0,1.44.38,1.43,1.35,0,3.76.06,7.53-.14,11.29A6,6,0,0,1,204,59a43.64,43.64,0,0,1-7,1.79c-2.46.48-5,.75-7.45,1.14-1.12.17-1.59-.22-1.5-1.38a22.11,22.11,0,0,0,0-2.82,1.38,1.38,0,0,1,1.06-1.62.93.93,0,0,1,.29,0C190.24,56,191.11,55.77,192.16,55.55Z" transform="translate(0 24)"/><path id="Path_14409" data-name="Path 14409" class="cls-2" d="M92.6,55.56c-1.22-4.35-2.37-8.49-3.53-12.63-.5-1.8-.41-1.92,1.4-1.92,1.46,0,2.91.05,4.36,0a1.47,1.47,0,0,1,1.72,1.15l0,.23c.72,3.47,1.51,6.91,2.29,10.37.09.41.22.81.33,1.22,1.43-.39,2.07-1.3,2.09-3.08,0-2.7,0-5.39,0-8.08,0-1.53.26-1.78,1.78-1.79s2.83,0,4.24,0c1,0,1.41.42,1.4,1.38,0,3.72,0,7.44-.13,11.15a6.27,6.27,0,0,1-4.19,5.53,23.58,23.58,0,0,1-4.89,1.4c-3.1.57-6.22,1-9.34,1.46-1.6.22-1.71.07-1.72-1.49,0-.94,0-1.88,0-2.82a1.27,1.27,0,0,1,1.08-1.46h.16C90.62,56,91.52,55.78,92.6,55.56Z" transform="translate(0 24)"/><path id="Path_14410" data-name="Path 14410" class="cls-2" d="M75.26,60.12c-.94,0-1.88,0-2.82,0S71,59.67,71,58.65s0-1.88,0-2.82c0-1.52.21-1.72,1.68-1.74s2.82,0,4.23,0a2.62,2.62,0,0,0,2.81-2.42,2.54,2.54,0,0,0,0-.39q0-.71,0-1.41A2.65,2.65,0,0,0,77.25,47h-.33c-1.46,0-2.91,0-4.36,0-1.07,0-1.6-.36-1.55-1.49s-.09-2.24,0-3.33c.06-.44.66-1.15,1-1.15a53.52,53.52,0,0,1,8.3.34c3.94.65,6.2,3.74,6.41,8.27a15,15,0,0,1-.34,4.06c-.94,4.08-4,6.27-8.6,6.37C77,60.13,76.11,60.12,75.26,60.12Z" transform="translate(0 24)"/><path id="Path_14411" data-name="Path 14411" class="cls-2" d="M10.45,51.64c-1,0-2,0-2.95,0-1.25,0-1.61-.54-.9-1.6a33.91,33.91,0,0,1,2.79-3.31c.47-.55,1-1,1.52-1.56s.95-1.29.23-1.76c-.52-.35-1.38-.17-2.1-.19a.41.41,0,0,0-.28.24C8,45.23,6.46,45,5,45c-1.2,0-2.4,0-3.59,0S-.16,44.51.07,43.38c.79-4,3.66-5.79,7.27-6.64a15.89,15.89,0,0,1,7.87.18c3.6,1,5.55,3.59,4.84,6.85a10.71,10.71,0,0,1-2,3.75A31,31,0,0,1,14.84,51a2.22,2.22,0,0,1-1.31.59C12.51,51.7,11.47,51.64,10.45,51.64Z" transform="translate(0 24)"/><path id="Path_14412" data-name="Path 14412" class="cls-2" d="M237,53.26c0,1.79,0,3.59,0,5.38,0,1.1-.46,1.53-1.55,1.49-1.45-.05-2.9,0-4.35,0-1.1,0-1.53-.5-1.53-1.55q0-4.55,0-9.1c0-1.93-.77-2.68-2.73-2.69-2.56,0-5.12,0-7.68,0-1.23,0-1.71-.51-1.66-1.69,0-.94,0-1.88,0-2.82S218,41,218.82,41c3.75.07,7.51,0,11.25.26,4.3.31,6.64,2.85,6.88,7.12.09,1.62,0,3.24,0,4.86Z" transform="translate(0 24)"/><path id="Path_14413" data-name="Path 14413" class="cls-2" d="M293.5,40.91c1.82.09,3.66.08,5.48.29,3.14.35,5.15,2.19,5.49,5.31a34.5,34.5,0,0,1,0,8.25C304,58.2,301.73,60,298,60.33a18.5,18.5,0,0,1-4.7-.21A6.34,6.34,0,0,1,287.88,54c-.19-4-.1-7.94-.15-11.9,0-.9.43-1.17,1.28-1.15,1.5.05,3,0,4.48,0Zm-3,7.83c0,1.2,0,2.39,0,3.59,0,3.45,1.75,5.41,5.2,5.49s5.57-.75,6.07-4.22a22.41,22.41,0,0,0,0-5.61,4.47,4.47,0,0,0-4.3-4.33,46.7,46.7,0,0,0-6.26-.14c-.26,0-.71.55-.72.87-.07,1.45,0,2.9,0,4.35Z" transform="translate(0 24)"/><path id="Path_14414" data-name="Path 14414" class="cls-2" d="M22.79,50.57c0-2.65,0-5.3,0-7.94,0-1.11.41-1.66,1.58-1.63q2.37.06,4.74,0c1.1,0,1.51.5,1.51,1.56q0,8,0,16c0,1.17-.52,1.6-1.64,1.56-1.53,0-3.07,0-4.61,0-1.17,0-1.6-.51-1.58-1.62C22.8,55.86,22.79,53.21,22.79,50.57Z" transform="translate(0 24)"/><path id="Path_14415" data-name="Path 14415" class="cls-2" d="M185.33,50.7c0,2.6,0,5.2,0,7.81,0,1.12-.42,1.65-1.58,1.62-1.53,0-3.07,0-4.61,0-1.13,0-1.65-.42-1.64-1.57q0-8,0-16c0-1.05.42-1.58,1.53-1.55,1.57,0,3.15,0,4.73,0,1.18,0,1.58.51,1.57,1.63C185.3,45.31,185.33,48,185.33,50.7Z" transform="translate(0 24)"/><path id="Path_14416" data-name="Path 14416" class="cls-2" d="M268,57.62c.15-4.77.28-9.36.42-14a4.14,4.14,0,0,0-.87-.09c-1,.09-1.37-.36-1.35-1.34s.56-1.19,1.41-1.16c3.11.1,6.24-.05,9.32.3a6.2,6.2,0,0,1,5.69,6.36c.14,3.71.07,7.43.12,11.14,0,1.11-.53,1.35-1.52,1.35s-1.36-.33-1.35-1.35c.05-3.12,0-6.24,0-9.35,0-2.94-1.1-4.9-3.29-5.5a17.71,17.71,0,0,0-4.42-.4c-.27,0-.76.65-.79,1-.21,3-.38,6-.49,9.06-.06,1.7,0,3.41.05,5.12,0,1-.33,1.42-1.35,1.37s-2.3,0-3.46,0c-.88,0-1.42-.4-1.37-1.42s.7-1.12,1.5-1.07C266.77,57.65,267.32,57.62,268,57.62Z" transform="translate(0 24)"/><path id="Path_14417" data-name="Path 14417" class="cls-2" d="M319.16,51.32a4,4,0,0,0,2.56-3.65c0-1.53.07-3.07.15-4.6.05-.93-.43-2.2,1.36-2.09,1.37.09,1.44.1,1.44,2,0,1.41.05,2.83,0,4.23a7,7,0,0,1-4,6.18c1.13,1.59,2.21,3,3.22,4.57.38.57,1.31,1.12.49,2-.47.48-2.33.13-2.83-.49s-.75-1-1.12-1.56l-5.8-8.15c-.21-.3-.48-.57-.75-.9-2,1.36-2.42,3.32-2.52,5.41-.07,1.58,0,3.16,0,4.75,0,1-.56,1.11-1.34,1.11s-1.4-.13-1.39-1.08c0-2.14,0-4.28.12-6.4a7.5,7.5,0,0,1,3.64-6c-.85-1.2-1.67-2.28-2.4-3.42-.4-.62-1.38-1.18-.6-2.08.47-.54,2.42,0,3,.7q2.55,3.54,5.08,7.09Z" transform="translate(0 24)"/><path id="Path_14418" data-name="Path 14418" class="cls-2" d="M41.49,46.65c0,1.37,0,2.74,0,4.1,0,.94-.36,1.43-1.35,1.41-1.67,0-3.33,0-5,0-1,0-1.37-.48-1.36-1.43q0-4.15,0-8.31c0-1,.4-1.42,1.38-1.41,1.66,0,3.32,0,5,0,.9,0,1.33.39,1.32,1.3C41.48,43.76,41.49,45.21,41.49,46.65Z" transform="translate(0 24)"/><path id="Path_14419" data-name="Path 14419" class="cls-2" d="M147.72,46.58v4.35a1.09,1.09,0,0,1-1.26,1.23c-1.71,0-3.41,0-5.12,0-.91,0-1.31-.46-1.31-1.35,0-2.82,0-5.63,0-8.45,0-.89.39-1.35,1.3-1.35,1.71,0,3.42,0,5.12,0,1,0,1.28.49,1.28,1.35,0,1.41,0,2.82,0,4.23Z" transform="translate(0 24)"/><path id="Path_14420" data-name="Path 14420" class="cls-2" d="M217.54,54.67c0-1.24,0-2.48,0-3.72,0-1,.43-1.5,1.47-1.48,1.49,0,3,0,4.48,0,1,0,1.5.38,1.49,1.42,0,2.6,0,5.21,0,7.81,0,1-.46,1.46-1.49,1.43-1.49,0-3,0-4.48,0-1,0-1.47-.5-1.46-1.48C217.55,57.32,217.54,56,217.54,54.67Z" transform="translate(0 24)"/><path id="Path_14421" data-name="Path 14421" class="cls-2" d="M10.28,53.07h2c1.57,0,1.71.13,1.72,1.63s0,2.73,0,4.09c0,.89-.33,1.34-1.27,1.33-1.74,0-3.49,0-5.24,0-.84,0-1.23-.39-1.22-1.25q0-2.23,0-4.47c0-.91.37-1.34,1.29-1.33s1.78,0,2.68,0Z" transform="translate(0 24)"/></g><g class="cls-3"><g id="Mask_Group_62" data-name="Mask Group 62"><rect id="Rectangle_3898" data-name="Rectangle 3898" class="cls-4" x="351.06" width="100" height="118" rx="23"/></g></g></g><g id="Group_12507" data-name="Group 12507"><path id="Path_14326" data-name="Path 14326" class="cls-5" d="M399.83,36.57a11.22,11.22,0,0,1,1-5.54A9.81,9.81,0,0,1,405,26.6,7,7,0,0,0,407.72,17a7.23,7.23,0,0,0-1-1.35,6.85,6.85,0,0,0-11,1.3,8,8,0,0,0-.92,3.38,1.83,1.83,0,0,1-1.72,1.94h-.2a1.88,1.88,0,0,1-1.81-1.94c0-.05,0-.1,0-.15a10.45,10.45,0,0,1,5.87-9.35,10.56,10.56,0,0,1,14.2,4.6,10.88,10.88,0,0,1-4.27,14.35,6.15,6.15,0,0,0-3.28,5.65c0,1.19,0,2.37,0,3.55a1.88,1.88,0,1,1-3.75-.06C399.83,38.27,399.83,37.59,399.83,36.57Z" transform="translate(0 24)"/><path id="Path_14327" data-name="Path 14327" class="cls-6" d="M376.71,76.64a8.87,8.87,0,0,1-3.38-4.24,20.13,20.13,0,0,1-1.47-9,42.24,42.24,0,0,1,3.31-14.56,38.06,38.06,0,0,1,11.21-15.12,12.63,12.63,0,0,1,4.39-2.43c3.1-.9,5.32.06,6.66,3a12.26,12.26,0,0,1,1.23,4.43c-.46-.84-.59-1.7-1-2.46-.74-1.48-1.68-2.7-3.47-2.83a6.74,6.74,0,0,0-3.76,1,24.82,24.82,0,0,0-6.61,5.73A40,40,0,0,0,374.56,61a24.6,24.6,0,0,0,.33,9.89,6.39,6.39,0,0,0,3.91,4.77,7.57,7.57,0,0,0,2.27.29,6.44,6.44,0,0,1-2.33.49,12.69,12.69,0,0,0-1.51,0C377,76.41,376.77,76.3,376.71,76.64Z" transform="translate(0 24)"/><path id="Path_14328" data-name="Path 14328" class="cls-6" d="M422.11,75.9a5.53,5.53,0,0,0,5.42-2.74,9.67,9.67,0,0,0,1.16-3,29.24,29.24,0,0,0-.43-12.35,40.34,40.34,0,0,0-6.42-14.67,32.49,32.49,0,0,0-7.8-8,9,9,0,0,0-3.9-1.61,3.63,3.63,0,0,0-3.7,1.57A12,12,0,0,0,405,37.91c-.12,0-.23,0-.2-.18a12.06,12.06,0,0,1,2.32-5.2c1.45-1.69,3.3-1.82,5.28-1.27a16,16,0,0,1,6.66,4.27,40.49,40.49,0,0,1,12,23.36,28.71,28.71,0,0,1,.15,9.52c-.5,3-1.46,5.67-3.79,7.72-.18.16-.39.28-.58.42a.69.69,0,0,0-.5-.14A11.66,11.66,0,0,1,422.11,75.9Z" transform="translate(0 24)"/><path id="Path_14329" data-name="Path 14329" class="cls-7" d="M388.52,47.28c-1.76-1.43-3.29-3-3.18-5.62.38.19.5.53.68.8a10.29,10.29,0,0,0,5.44,4.2,6.62,6.62,0,0,0,4.62-.2c.43-.17.61-.11.62.36a.13.13,0,0,0,0,.06,3.11,3.11,0,0,1-.9,3.27,12.69,12.69,0,0,0-2.95,10.45,5.2,5.2,0,0,1,.3,1.47c-1.69-1.15-1.87-2.82-1.89-4.72a24.15,24.15,0,0,1-8.55,8.58,1,1,0,0,1,.32-1.26c1.51-1.55,3-3.13,4.35-4.81a16,16,0,0,0,2.15-3.14c-2,1-3.87,1.76-6.16,1.13,1-.34,1.91-.55,2.73-.91a12.22,12.22,0,0,0,5.63-4.74,12.44,12.44,0,0,1,2.6-3.22c-.06-.11-.08-.17-.1-.18-1.28-.11-2.57-.3-3.85-.3a7.65,7.65,0,0,0-5.81,2.6c-.19.21-.47.6-.64.49-.33-.2,0-.52.1-.79A5.08,5.08,0,0,1,388,47.51C388.13,47.46,388.34,47.52,388.52,47.28Z" transform="translate(0 24)"/><path id="Path_14330" data-name="Path 14330" class="cls-8" d="M422.11,75.9a11.6,11.6,0,0,0,4.22.51.69.69,0,0,1,.5.14A7.71,7.71,0,0,1,421,78.26a13.06,13.06,0,0,1-8.33-4.53,45.4,45.4,0,0,1-7.84-11.24,30.33,30.33,0,0,1-2.62-8.41c0-.3,0-.6-.05-1.07a60.88,60.88,0,0,0,4.32,7.78,82.54,82.54,0,0,0,8,10.63A13.09,13.09,0,0,0,422.11,75.9Z" transform="translate(0 24)"/><path id="Path_14331" data-name="Path 14331" class="cls-8" d="M376.71,76.64c.06-.34.32-.23.52-.24.5,0,1,0,1.51,0a6.43,6.43,0,0,0,2.33-.48,12.93,12.93,0,0,0,7.8-4.43,85.64,85.64,0,0,0,8.69-11.72,69.19,69.19,0,0,0,3.68-6.7,21.79,21.79,0,0,1-.8,4.32,38,38,0,0,1-7.7,14,22.68,22.68,0,0,1-4.95,4.83,11.08,11.08,0,0,1-6.5,2.08A7.35,7.35,0,0,1,376.71,76.64Z" transform="translate(0 24)"/><path id="Path_14332" data-name="Path 14332" class="cls-9" d="M412.42,59.48a3.74,3.74,0,0,1-1.76,2.65,10.49,10.49,0,0,0,.58-3.69,13.26,13.26,0,0,0-4.48-9.71.71.71,0,0,1-.31-.82,6.34,6.34,0,0,0,.17-1.37c0-.37.11-.54.5-.34,4.15,2.19,8.61-.47,10.62-3.51.22-.34.46-.67.77-1.11a4.49,4.49,0,0,1-.68,3.15,8.19,8.19,0,0,1-2,2.22c-.13.1-.35.19-.33.38s.28.16.43.21a5.72,5.72,0,0,1,3.72,2.78,1.73,1.73,0,0,1,.26.74c-.09.31-.25.3-.46.11A8.09,8.09,0,0,0,412,48.64a17.29,17.29,0,0,1-1.76.09c-.14,0-.33,0-.4.14s.08.24.16.33a3.82,3.82,0,0,1,.65.9c-.13.07-.32.28-.24.3.54.11.57.81,1.09.91v0a3,3,0,0,0,1.23,1.78h0c0,.2.06.29.25.3l.12.14A2.2,2.2,0,0,0,414.51,55h0c0,.2.12.28.31.26a.05.05,0,0,1,.07,0h0c.06.51.41.63.85.61h.05l0,0c0,.26.21.24.39.24l.14.06.1.08h0a.79.79,0,0,0,.47.51,6.76,6.76,0,0,0,1.91.66c.18,0,.37,0,.37.26s-.19.27-.37.26a3.78,3.78,0,0,1-.82-.12c-.65-.22-1.26-.71-2-.52l0,0,0,0c0-.38-.33-.25-.55-.27h-.06l0,0c-.09-.52-.6-.42-.91-.57-.13-.06-.2.37-.27.59-.26,0-.35.1-.43.35s0,.6-.23.83c-.14-.08-.19-.28-.4-.26h0a1.38,1.38,0,0,0-.05-.45c-.08-.2-.24-.43-.46-.4s-.13.33-.14.5C412.4,58.26,412.41,58.87,412.42,59.48ZM414.84,56l-.11,0s-.05.08,0,.1.07,0,.1.05Z" transform="translate(0 24)"/><path id="Path_14333" data-name="Path 14333" class="cls-5" d="M398.79,45.29a2.95,2.95,0,1,1,0,.07Z" transform="translate(0 24)"/><path id="Path_14334" data-name="Path 14334" class="cls-7" d="M414.11,57.08c.07-.23.15-.65.27-.59.31.15.83,0,.91.57l-.72-.26c-.16.22,0,.35.08.49,1,2.56,3,4.4,4.82,6.34.33.34.78.59.89,1.1,0,.15.31.27.11.45s-.32,0-.47-.1a21.13,21.13,0,0,1-4.32-3.26A13.24,13.24,0,0,1,413.06,58c.2,0,.26.19.39.27a.82.82,0,0,0,.54.66c-.08.47.46.37.59.65,0,.08,0,.47.29.2a.32.32,0,0,0,.09-.45.12.12,0,0,0,0,0,1,1,0,0,0-.92-.35c.05-.16-.08-.56.17-.42.71.4.3-.18.37-.36C414.75,57.63,414.24,57.43,414.11,57.08Z" transform="translate(0 24)"/><path id="Path_14335" data-name="Path 14335" class="cls-7" d="M416,57.36c.76-.2,1.36.3,2,.51a2.84,2.84,0,0,0,.81.12c.18,0,.37,0,.37-.26s-.19-.24-.36-.26a6.52,6.52,0,0,1-1.92-.66.78.78,0,0,1-.46-.51c1.27.61,2.62,1.05,3.95,1.56A5.12,5.12,0,0,1,416,57.36Z" transform="translate(0 24)"/><path id="Path_14336" data-name="Path 14336" class="cls-7" d="M412.42,59.47c0-.6,0-1.21,0-1.82,0-.17-.11-.46.14-.5s.37.21.46.4a1.38,1.38,0,0,1,.05.45c-.27-.18-.38-.07-.4.22A3.13,3.13,0,0,1,412.42,59.47Z" transform="translate(0 24)"/><path id="Path_14337" data-name="Path 14337" class="cls-7" d="M412.7,53.11a3.07,3.07,0,0,1-1.23-1.78A9.1,9.1,0,0,1,412.7,53.11Z" transform="translate(0 24)"/><path id="Path_14338" data-name="Path 14338" class="cls-7" d="M414.51,55a2.25,2.25,0,0,1-1.45-1.43Z" transform="translate(0 24)"/><path id="Path_14339" data-name="Path 14339" class="cls-7" d="M411.47,51.31c-.53-.1-.55-.8-1.09-.91-.09,0,.11-.23.24-.3A4.71,4.71,0,0,1,411.47,51.31Z" transform="translate(0 24)"/><path id="Path_14340" data-name="Path 14340" class="cls-8" d="M419.44,51.16c.21.2.37.2.46-.11.25.24.23.54.27.94A1.79,1.79,0,0,1,419.44,51.16Z" transform="translate(0 24)"/><path id="Path_14341" data-name="Path 14341" class="cls-7" d="M415.75,55.88c-.43,0-.78-.1-.85-.61A2.46,2.46,0,0,1,415.75,55.88Z" transform="translate(0 24)"/><path id="Path_14342" data-name="Path 14342" class="cls-7" d="M415.4,57.09c.22,0,.5-.11.55.26A.78.78,0,0,1,415.4,57.09Z" transform="translate(0 24)"/><path id="Path_14343" data-name="Path 14343" class="cls-7" d="M416.21,56.16c-.18,0-.37,0-.39-.25A.54.54,0,0,1,416.21,56.16Z" transform="translate(0 24)"/><path id="Path_14344" data-name="Path 14344" class="cls-7" d="M413,53.39c-.2,0-.29-.09-.25-.29A.43.43,0,0,1,413,53.39Z" transform="translate(0 24)"/><path id="Path_14345" data-name="Path 14345" class="cls-7" d="M414.82,55.22c-.19,0-.3,0-.31-.25A.46.46,0,0,1,414.82,55.22Z" transform="translate(0 24)"/><path id="Path_14346" data-name="Path 14346" class="cls-7" d="M416.46,56.29l-.1-.08Z" transform="translate(0 24)"/><path id="Path_14347" data-name="Path 14347" class="cls-5" d="M414.11,57.08c.13.35.64.55.42,1.06-.08.18.34.76-.37.36-.24-.14-.11.27-.17.42h0a.82.82,0,0,1-.53-.67c.22-.23.15-.55.23-.83S413.86,57.05,414.11,57.08Z" transform="translate(0 24)"/><path id="Path_14348" data-name="Path 14348" class="cls-7" d="M414.85,56l-.05.11s-.09,0-.1-.05,0-.07,0-.11Z" transform="translate(0 24)"/><path id="Path_14349" data-name="Path 14349" class="cls-8" d="M414,58.92a1.09,1.09,0,0,1,.93.35.32.32,0,0,1,0,.45l-.06.05c-.31.27-.25-.12-.28-.2-.14-.28-.68-.18-.6-.65Z" transform="translate(0 24)"/></g></g></svg>