<svg xmlns="http://www.w3.org/2000/svg" xmlns:xlink="http://www.w3.org/1999/xlink" width="41.85" height="41.85" viewBox="0 0 41.85 41.85">
  <defs>
    <clipPath id="clip-path">
      <rect id="Rectangle_3965" data-name="Rectangle 3965" width="21" height="23" transform="translate(385 211)" fill="none" stroke="#b52877" stroke-width="1"/>
    </clipPath>
  </defs>
  <g id="Group_12776" data-name="Group 12776" transform="translate(-292.266 -211)">
    <g id="Group_12775" data-name="Group 12775" transform="translate(292.266 211)">
      <g id="Ellipse_1748" data-name="Ellipse 1748" fill="#fff" stroke="#676d8e" stroke-width="2" opacity="0.3">
        <ellipse cx="20.925" cy="20.925" rx="20.925" ry="20.925" stroke="none"/>
        <ellipse cx="20.925" cy="20.925" rx="19.925" ry="19.925" fill="none"/>
      </g>
      <path id="Path_35797" data-name="Path 35797" d="M1308.524,331.5l-10.239,6.394a.765.765,0,0,1-1.171-.65V324.461a.765.765,0,0,1,1.171-.65l10.239,6.394a.766.766,0,0,1,0,1.3Z" transform="translate(-1280.112 -310.615)" fill="#d0d2dc" fill-rule="evenodd"/>
    </g>
    <g id="Mask_Group_70" data-name="Mask Group 70" transform="translate(-72)" clip-path="url(#clip-path)">
      <g id="Path_35814" data-name="Path 35814" transform="translate(364.266 211)" fill="none">
        <path d="M20.925,0A20.925,20.925,0,1,1,0,20.925,20.925,20.925,0,0,1,20.925,0Z" stroke="none"/>
        <path d="M 20.92498779296875 2 C 15.86993789672852 2 11.11745834350586 3.968540191650391 7.542999267578125 7.542999267578125 C 3.968536376953125 11.11745834350586 1.999996185302734 15.86994934082031 1.999996185302734 20.92499923706055 C 1.999996185302734 25.98004913330078 3.968536376953125 30.73254013061523 7.542999267578125 34.30699920654297 C 11.11745834350586 37.8814582824707 15.86993789672852 39.84999847412109 20.92498779296875 39.84999847412109 C 25.98003768920898 39.84999847412109 30.73251724243164 37.8814582824707 34.30697631835938 34.30699920654297 C 37.88143920898438 30.73254013061523 39.84997940063477 25.98004913330078 39.84997940063477 20.92499923706055 C 39.84997940063477 15.86994934082031 37.88143920898438 11.11745834350586 34.30697631835938 7.542999267578125 C 30.73251724243164 3.968540191650391 25.98003768920898 2 20.92498779296875 2 M 20.92498779296875 0 C 32.48153686523438 0 41.84997940063477 9.368438720703125 41.84997940063477 20.92499923706055 C 41.84997940063477 32.48155975341797 32.48153686523438 41.84999847412109 20.92498779296875 41.84999847412109 C 9.368438720703125 41.84999847412109 -3.814697265625e-06 32.48155975341797 -3.814697265625e-06 20.92499923706055 C -3.814697265625e-06 9.368438720703125 9.368438720703125 0 20.92498779296875 0 Z" stroke="none" fill="#b52877"/>
      </g>
    </g>
  </g>
</svg>
